<svg width="561" height="455" viewBox="0 0 561 455" fill="none" xmlns="http://www.w3.org/2000/svg">
<g clip-path="url(#clip0_809_9396)">
<path d="M51.0665 284.034C55.2626 273.005 67.3599 268.607 78.3171 268.409C89.9078 268.195 101.427 271.016 112.994 271.65C135.84 272.839 158.712 269.851 180.487 262.831C181.216 262.601 180.907 261.452 180.171 261.69C155.679 269.593 129.819 272.344 104.214 269.772C86.4084 267.95 58.2948 261.627 49.9185 283.717C49.6493 284.43 50.7973 284.739 51.0665 284.034Z" fill="#E8E8E8"/>
<path d="M39.2383 170.118C64.2642 162.606 89.9077 170.419 114.554 175.569C126.429 178.049 138.455 180.046 150.608 179.753C162.761 179.46 174.969 177.051 186.718 173.644C211.586 166.433 235.123 155.325 259.943 147.885C314.946 131.429 372.841 127.005 429.702 134.914C430.454 135.017 430.778 133.876 430.018 133.773C377.603 126.497 324.27 129.623 273.062 142.972C247.3 149.715 223.05 160.285 197.905 168.85C185.293 173.153 172.325 176.726 159.024 178.041C146.024 179.333 133.151 177.986 120.365 175.53C93.6683 170.411 66.0298 160.832 38.9454 168.977C38.806 169.029 38.6912 169.131 38.6236 169.264C38.5561 169.396 38.5406 169.549 38.5804 169.693C38.6202 169.836 38.7124 169.96 38.8386 170.038C38.9648 170.117 39.1159 170.145 39.2621 170.118H39.2383Z" fill="#E8E8E8"/>
<path d="M253.625 116.373C296.504 117.094 337.396 99.448 380.362 101.421C422.062 103.338 461.908 119.732 503.94 118.282C523.86 117.601 543.708 112.855 560.231 101.342C560.856 100.906 560.231 99.8759 559.629 100.312C527.058 123.013 485.066 118.536 448.299 111.222C427.762 107.158 407.296 102.253 386.371 100.613C365.446 98.9726 345.036 101.793 324.618 105.692C301.144 110.176 277.677 115.588 253.633 115.2C253.476 115.2 253.325 115.263 253.213 115.374C253.102 115.486 253.039 115.637 253.039 115.794C253.039 115.952 253.102 116.103 253.213 116.214C253.325 116.326 253.476 116.389 253.633 116.389L253.625 116.373Z" fill="#E8E8E8"/>
<path d="M295.277 165.99C361.488 154.746 428.284 177.32 494.503 165.562C511.2 162.598 527.43 157.369 542.275 149.128C542.948 148.756 542.346 147.734 541.681 148.098C483.427 180.236 414.746 164.231 351.94 161.83C332.883 161.101 313.787 161.648 294.937 164.841C294.185 164.968 294.501 166.117 295.253 165.99H295.277Z" fill="#E8E8E8"/>
<path d="M1.3946 98.0931C14.4845 91.3734 29.303 88.7847 43.8936 90.6688C58.5719 92.618 71.6034 99.9393 85.4821 104.654C112.535 113.861 141.511 115.747 169.87 113.956C186.155 112.812 202.365 110.773 218.426 107.847C219.218 107.712 218.861 106.571 218.109 106.698C188.579 111.88 158.494 115.16 128.512 112.379C113.501 111.067 98.7066 107.933 84.4529 103.045C70.9938 98.3388 58.3264 91.374 43.9728 89.4803C29.1462 87.5821 14.0931 90.2288 0.800819 97.071C0.119949 97.4117 0.713731 98.4418 1.3946 98.0931Z" fill="#E8E8E8"/>
<path d="M130.633 80.7486C181.667 92.095 231.133 69.7824 279.934 58.222C294.676 54.7277 309.639 52.216 324.808 51.7168C325.6 51.7168 325.6 50.4966 324.808 50.5283C273.291 52.2398 226.28 77.2701 175.238 81.9688C160.417 83.3395 145.502 82.8404 130.95 79.5917C130.206 79.4253 129.889 80.5663 130.633 80.7327V80.7486Z" fill="#E8E8E8"/>
<path d="M302.767 21.8134C333.791 13.9527 365.804 10.7142 397.772 12.2022C413.728 12.955 429.606 14.8964 445.275 18.0102C460.792 21.0924 476.048 24.6818 491.938 25.0383C509.775 25.4345 527.509 22.9069 544.982 19.6186C545.774 19.476 545.418 18.335 544.666 18.4697C528.285 21.552 511.707 23.9528 495.002 23.8894C478.138 23.826 462.019 20.1337 445.575 16.8612C398.16 7.45487 349.245 8.75419 302.395 20.6645C302.242 20.7055 302.113 20.8053 302.034 20.942C301.955 21.0787 301.934 21.2411 301.975 21.3935C302.016 21.5458 302.116 21.6757 302.252 21.7544C302.389 21.8332 302.551 21.8544 302.703 21.8134H302.767Z" fill="#E8E8E8"/>
<path d="M105.757 6.39428C105.757 8.80103 103.807 10.7514 101.403 10.7514C98.9996 10.7514 97.0502 8.80103 97.0502 6.39428C97.0502 3.98753 98.9996 2.03716 101.403 2.03716C103.807 2.03716 105.757 3.98753 105.757 6.39428Z" fill="#38A169" stroke="#38A169"/>
<path d="M151.416 140.056C152.99 140.056 154.266 138.779 154.266 137.204C154.266 135.628 152.99 134.351 151.416 134.351C149.842 134.351 148.566 135.628 148.566 137.204C148.566 138.779 149.842 140.056 151.416 140.056Z" fill="#38A169"/>
<path d="M89.6307 222.231C92.1755 222.231 94.2384 220.166 94.2384 217.619C94.2384 215.073 92.1755 213.008 89.6307 213.008C87.0859 213.008 85.0229 215.073 85.0229 217.619C85.0229 220.166 87.0859 222.231 89.6307 222.231Z" fill="#38A169" stroke="#38A169" stroke-miterlimit="10"/>
<path d="M463.452 84.7579C465.551 84.7579 467.252 83.0551 467.252 80.9546C467.252 78.8541 465.551 77.1513 463.452 77.1513C461.353 77.1513 459.652 78.8541 459.652 80.9546C459.652 83.0551 461.353 84.7579 463.452 84.7579Z" fill="#38A169" stroke="#38A169" stroke-miterlimit="10"/>
<path d="M257.41 24.6976C259.5 24.6976 261.194 23.0019 261.194 20.9102C261.194 18.8184 259.5 17.1227 257.41 17.1227C255.32 17.1227 253.625 18.8184 253.625 20.9102C253.625 23.0019 255.32 24.6976 257.41 24.6976Z" fill="#38A169" stroke="#38A169" stroke-miterlimit="10"/>
<path d="M299.06 86.9923C299.06 89.1934 297.278 90.977 295.079 90.977C292.881 90.977 291.098 89.1934 291.098 86.9923C291.098 84.7912 292.881 83.0076 295.079 83.0076C297.278 83.0076 299.06 84.7912 299.06 86.9923Z" fill="#38A169" stroke="#38A169"/>
<path d="M130.04 131.934C131.605 131.934 132.874 130.664 132.874 129.098C132.874 127.531 131.605 126.261 130.04 126.261C128.474 126.261 127.205 127.531 127.205 129.098C127.205 130.664 128.474 131.934 130.04 131.934Z" fill="#EC615B"/>
<path d="M108.03 71.2324C110.404 71.2324 112.329 69.3061 112.329 66.9299C112.329 64.5537 110.404 62.6275 108.03 62.6275C105.656 62.6275 103.731 64.5537 103.731 66.9299C103.731 69.3061 105.656 71.2324 108.03 71.2324Z" stroke="#EC615B" stroke-miterlimit="10"/>
<path d="M238.828 149.247C241.233 149.247 243.183 147.296 243.183 144.889C243.183 142.483 241.233 140.531 238.828 140.531C236.424 140.531 234.474 142.483 234.474 144.889C234.474 147.296 236.424 149.247 238.828 149.247Z" fill="#EC615B"/>
<path d="M209.187 50.4094C210.931 50.4094 212.346 48.994 212.346 47.2479C212.346 45.5019 210.931 44.0864 209.187 44.0864C207.442 44.0864 206.028 45.5019 206.028 47.2479C206.028 48.994 207.442 50.4094 209.187 50.4094Z" fill="#EC615B"/>
<path d="M247.213 182.193C248.594 182.193 249.714 181.072 249.714 179.69C249.714 178.307 248.594 177.186 247.213 177.186C245.831 177.186 244.711 178.307 244.711 179.69C244.711 181.072 245.831 182.193 247.213 182.193Z" stroke="#EC615B" stroke-miterlimit="10"/>
<path d="M482.263 131.934C483.829 131.934 485.098 130.664 485.098 129.098C485.098 127.531 483.829 126.261 482.263 126.261C480.698 126.261 479.429 127.531 479.429 129.098C479.429 130.664 480.698 131.934 482.263 131.934Z" stroke="#EC615B" stroke-miterlimit="10"/>
<path d="M176.101 58.3963C176.416 58.3963 176.718 58.2711 176.941 58.0482C177.164 57.8253 177.289 57.523 177.289 57.2078C177.289 56.8926 177.164 56.5903 176.941 56.3674C176.718 56.1445 176.416 56.0193 176.101 56.0193C175.786 56.0193 175.484 56.1445 175.261 56.3674C175.039 56.5903 174.914 56.8926 174.914 57.2078C174.914 57.523 175.039 57.8253 175.261 58.0482C175.484 58.2711 175.786 58.3963 176.101 58.3963Z" fill="#EC615B"/>
<path d="M236.469 238.442C238.393 236.921 241.148 239.235 243.167 239.385C244.082 239.45 244.993 239.208 245.756 238.696C246.009 238.421 246.247 238.136 246.468 237.84L250.047 237.436C250.997 237.531 251.504 238.149 252.549 238.228C254.987 238.363 260.149 234.813 261.257 238.688C261.299 238.84 261.4 238.97 261.538 239.048C261.675 239.126 261.838 239.146 261.99 239.104C262.142 239.062 262.271 238.961 262.349 238.824C262.427 238.686 262.447 238.523 262.405 238.371C261.907 236.66 260.632 235.875 258.835 235.748C257.307 235.637 256.111 236.462 254.655 236.66C252.762 236.921 251.171 236.137 249.493 235.867C249.073 235.788 248.661 235.455 248.218 235.463C246.975 235.463 247.03 235.859 246.065 236.39C243.872 237.587 243.001 238.268 240.721 237.523C238.805 236.889 237.277 236.335 235.606 237.658C235.004 238.133 235.852 238.965 236.445 238.498L236.469 238.442Z" fill="#EC615B"/>
<path d="M251.979 244.092C254.417 242.372 256.23 243.466 258.661 244.219C259.215 244.393 259.397 244.726 259.88 244.829C261.669 245.217 261.574 244.036 263.047 243.545C265.224 242.824 266.087 244.488 268.058 244.575C270.03 244.662 272.809 241.406 274.202 243.83C274.282 243.967 274.412 244.066 274.565 244.106C274.718 244.147 274.881 244.124 275.017 244.044C275.154 243.964 275.253 243.834 275.293 243.681C275.333 243.528 275.311 243.365 275.231 243.228C274.439 241.881 273.323 241.604 271.779 241.921C269.333 242.436 270.038 243.648 266.166 242.333C265.461 242.095 265.248 241.501 264.385 241.485C263.963 241.52 263.554 241.65 263.189 241.865C261.717 242.571 262.508 242.991 260.577 243.109C259.041 243.212 259.096 242.895 257.877 242.317C256.83 241.828 255.668 241.643 254.521 241.784C253.375 241.924 252.291 242.383 251.393 243.109C250.767 243.545 251.393 244.575 251.987 244.131L251.979 244.092Z" fill="#EC615B"/>
<path d="M435.275 1.94126C437.437 0.784426 439.424 3.08225 441.49 3.24072C442.773 3.3358 443.074 2.6306 444.055 2.23443C447.096 1.03005 447.135 2.94755 449.597 3.44673C452.376 4.0093 454.625 2.13142 457.253 4.53225C457.815 5.04728 458.662 4.20738 458.092 3.69236C456.438 2.17896 455.139 1.3153 452.891 1.41038C450.943 1.50547 449.566 1.86202 447.578 0.942896C446.929 0.641802 446.407 0.0633855 445.639 0.0079209C445.103 -0.0199204 444.57 0.106563 444.103 0.372403C443.248 0.689343 443.43 1.11721 442.179 1.4817C440.683 1.92541 440.508 1.7194 439.155 1.19645C437.571 0.578414 436.265 0.0554617 434.658 0.919125C433.985 1.28361 434.586 2.30574 435.259 1.94126H435.275Z" fill="#EC615B"/>
<path d="M451.537 8.72379C452.329 5.83171 456.501 9.34182 458.013 9.56368C459.842 9.83308 460.388 8.47816 462.019 8.41477C463.523 8.35139 463.603 9.63499 465.012 9.79347C465.4 9.84101 465.804 9.54784 466.16 9.53991C466.47 9.40868 466.742 9.20162 466.952 8.93773C469.16 8.35139 470.847 8.81095 472.026 10.3323C472.573 10.8711 473.412 10.0312 472.866 9.49237C470.973 7.6145 469.699 6.86969 467.189 7.31341C465.748 7.56696 467.078 9.19128 464.299 8.03445C463.904 7.86805 463.706 7.0757 463.246 6.96477C462.787 6.85384 462.455 6.56859 462.019 6.59236C461.687 6.59236 461.354 6.86969 461.038 6.93308C459.224 7.30548 461.766 7.72543 458.267 7.63035C456.366 7.57488 455.306 6.60821 453.516 6.47351C451.933 6.35466 450.809 6.87761 450.349 8.40685C450.322 8.55312 450.35 8.70437 450.429 8.83069C450.508 8.957 450.631 9.04919 450.774 9.08902C450.917 9.12885 451.07 9.11343 451.203 9.0458C451.335 8.97817 451.438 8.86326 451.489 8.72379H451.537Z" fill="#EC615B"/>
<path d="M62.3959 312.733C62.4355 311.806 67.447 313.93 68.5633 313.621C69.6796 313.312 69.8775 312.456 70.6534 311.854C72.3397 310.531 73.361 311.394 75.182 311.394C77.7867 311.394 79.188 309.239 82.149 310.34C84.2312 311.133 85.395 312.717 87.7702 312.717C87.9276 312.717 88.0787 312.655 88.19 312.543C88.3014 312.432 88.3639 312.281 88.3639 312.123C88.3639 311.966 88.3014 311.814 88.19 311.703C88.0787 311.591 87.9276 311.529 87.7702 311.529C84.6587 311.529 82.632 307.955 79.5205 308.359C77.5492 308.613 76.5912 310.111 74.3032 309.825C73.2344 309.699 72.8464 309.08 71.6747 309.437C70.6296 309.754 70.3367 310.752 69.5292 311.362C66.7028 313.486 66.3623 311.053 64.0505 310.697C62.4671 310.459 61.2796 311.164 61.2083 312.717C61.1687 313.51 62.3563 313.51 62.3959 312.717V312.733Z" fill="#EC615B"/>
<path d="M81.0327 315.728C84.3183 313.74 83.8195 317.392 85.68 317.606C88.356 317.907 90.6124 316.695 93.2963 318.303C95.4022 319.563 97.6428 320.419 99.63 318.62C100.2 318.105 99.3608 317.273 98.7908 317.781C96.2335 320.063 93.4309 316.457 91.1983 315.808C89.4248 315.293 88.0314 316.204 86.353 315.808C83.9779 315.308 83.0911 313.042 80.4073 314.667C79.758 315.063 80.3518 316.093 81.009 315.697L81.0327 315.728Z" fill="#EC615B"/>
<path d="M263.762 81.7427C263.633 81.8718 263.459 81.9442 263.276 81.9442C263.094 81.9442 262.919 81.8718 262.79 81.7427C262.661 81.6136 262.589 81.4384 262.589 81.2557C262.589 81.0729 262.661 80.8977 262.79 80.7687C262.919 80.6396 263.094 80.5671 263.276 80.5671C263.459 80.5671 263.633 80.6396 263.762 80.7687C263.891 80.8977 263.964 81.0729 263.964 81.2557C263.964 81.4384 263.891 81.6136 263.762 81.7427Z" fill="#38A169" stroke="#38A169"/>
<path d="M143.832 22.083L143.874 22.024C144.593 21.0064 145.322 20.3937 146.089 20.1077C146.864 19.8186 147.608 19.8893 148.3 20.1013C148.904 20.2861 149.504 20.5909 150.065 20.8764C150.132 20.9103 150.198 20.944 150.264 20.9772C150.902 21.2998 151.502 21.5845 152.111 21.7218L152.111 21.7218C152.63 21.8387 152.914 21.8011 153.181 21.7169C153.318 21.6737 153.453 21.6176 153.629 21.5443C153.649 21.5359 153.67 21.5273 153.691 21.5184C153.892 21.435 154.128 21.3393 154.417 21.2492C155.588 20.8786 156.496 20.8779 157.371 21.0036C157.741 21.0567 158.108 21.133 158.473 21.209C158.528 21.2205 158.583 21.2319 158.638 21.2433C159.063 21.3311 159.499 21.4167 159.986 21.4755L159.987 21.4756C160.97 21.5953 161.759 21.3554 162.658 21.082C162.861 21.0203 163.07 20.9568 163.287 20.8954C164.462 20.564 165.767 20.3574 167.502 21.1003L167.504 21.1009C167.55 21.1208 167.579 21.1162 167.603 21.1062C167.637 21.0926 167.674 21.0618 167.698 21.021C167.703 21.0118 167.707 21.0039 167.71 20.9972C167.709 20.997 167.709 20.9969 167.709 20.9967L167.714 20.9837C167.716 20.9761 167.716 20.9721 167.716 20.9721C167.716 20.9721 167.716 20.9737 167.717 20.977L167.907 20.5378M143.832 22.083L167.717 20.9782L167.907 20.5378M143.832 22.083C143.824 22.0879 143.815 22.0914 143.803 22.0932C143.775 22.0974 143.733 22.0913 143.693 22.0682C143.675 22.0578 143.664 22.048 143.658 22.0411C143.66 22.0363 143.664 22.0304 143.669 22.0232L143.677 22.0126L143.684 22.0017C144.112 21.3253 144.708 20.772 145.415 20.396C146.121 20.02 146.913 19.8343 147.712 19.857L147.715 19.857C148.416 19.8734 149.109 20.0097 149.765 20.26L149.765 20.2601L149.775 20.2638C149.967 20.3324 150.172 20.4693 150.449 20.6537C150.467 20.6661 150.486 20.6787 150.505 20.6914C150.773 20.8698 151.129 21.1041 151.509 21.1914C152.3 21.3737 153.009 21.201 153.614 20.9836C153.825 20.9081 154.037 20.8214 154.235 20.7407C154.316 20.7077 154.394 20.6758 154.469 20.646C154.736 20.5393 154.976 20.4527 155.204 20.4002C156.273 20.1763 157.246 20.2994 158.304 20.467C158.387 20.4801 158.47 20.4935 158.554 20.5069C159.53 20.6639 160.591 20.8346 161.768 20.7101C162.158 20.669 162.518 20.6246 162.858 20.5828C164.665 20.3607 165.883 20.2109 167.709 20.997L167.712 20.9899L143.832 22.083ZM167.907 20.5378C165.949 19.695 164.594 19.8629 162.777 20.0882C162.441 20.1298 162.09 20.1734 161.716 20.2129C160.608 20.33 159.609 20.1698 158.625 20.012C157.48 19.8281 156.354 19.6475 155.097 19.9118L152.002 22.2096C152.866 22.4043 153.262 22.2389 153.82 22.0066C154.033 21.9175 154.27 21.8185 154.567 21.7263C156.128 21.2319 157.16 21.4466 158.37 21.6982C158.846 21.7975 159.351 21.9024 159.927 21.9719C161.024 22.1055 161.929 21.8289 162.835 21.5518C164.132 21.1552 165.432 20.7576 167.305 21.5599C168.002 21.861 168.604 20.8388 167.907 20.5378Z" fill="#38A169" stroke="#38A169"/>
<path d="M184.391 99.8213L184.393 99.8224C184.415 99.8417 184.431 99.8482 184.439 99.8508C184.448 99.8534 184.457 99.8545 184.468 99.8532C184.494 99.8504 184.532 99.8347 184.565 99.8018C184.584 99.7826 184.593 99.7667 184.597 99.7576C184.593 99.7532 184.587 99.7472 184.579 99.7397C183.611 98.9095 182.894 98.637 182.161 98.5692C181.779 98.5339 181.376 98.5527 180.902 98.5974C180.695 98.6168 180.481 98.6405 180.251 98.666C180.216 98.6698 180.181 98.6736 180.146 98.6775C179.878 98.707 179.591 98.738 179.284 98.7652C178.089 98.8896 176.885 98.6333 175.844 98.0332C175.628 97.9363 175.455 97.7901 175.338 97.6918C175.33 97.6852 175.323 97.6789 175.315 97.6727C175.174 97.5542 175.099 97.498 175.025 97.4686C174.51 97.2875 173.949 97.2882 173.434 97.4709L173.419 97.4763L173.403 97.4808C172.73 97.6713 172.263 97.9435 171.87 98.2295C171.696 98.3562 171.538 98.484 171.375 98.616C171.349 98.637 171.323 98.6581 171.297 98.6794C171.111 98.8302 170.913 98.9873 170.698 99.1266C170.252 99.4161 169.74 99.6252 169.035 99.6433C168.349 99.6609 167.51 99.4973 166.402 99.1032L184.391 99.8213ZM184.391 99.8213C183.967 99.4571 183.356 99.3085 182.751 99.2436C182.128 99.1768 181.412 99.1901 180.7 99.224C180.369 99.2397 180.048 99.2592 179.733 99.2784C179.344 99.302 178.963 99.3252 178.581 99.3402C177.905 99.3666 177.318 99.3619 176.867 99.2882C176.866 99.2871 176.825 99.2697 176.699 99.1272C176.689 99.1158 176.678 99.103 176.665 99.0891C176.613 99.0292 176.544 98.9501 176.474 98.8822C176.385 98.7955 176.261 98.6913 176.098 98.6231M184.391 99.8213L176.098 98.6231M160.596 99.5537L160.596 99.5561C160.59 99.6022 160.601 99.6293 160.619 99.653C160.643 99.6842 160.685 99.7131 160.732 99.7263C160.737 99.7278 160.742 99.729 160.746 99.7299L160.773 99.5155L160.809 99.4914C160.887 99.1362 161.031 98.8318 161.252 98.5923C161.523 98.2994 161.868 98.1473 162.23 98.0877C162.919 97.9741 163.737 98.1852 164.488 98.4581C165.18 98.7096 165.896 99.0455 166.518 99.3375C166.587 99.3699 166.655 99.4017 166.721 99.4328C167.06 99.5912 167.362 99.7301 167.621 99.8351C167.889 99.9438 168.071 99.9996 168.18 100.014C169.378 100.177 170.27 99.6602 171.445 98.9083L160.596 99.5537ZM160.596 99.5537C160.694 98.8246 161.074 98.334 161.604 98.0416C162.149 97.7409 162.878 97.6382 163.65 97.7698M160.596 99.5537L163.65 97.7698M176.098 98.6231C175.407 98.3307 174.884 98.1206 174.467 97.9939C174.048 97.8667 173.691 97.8084 173.343 97.8588C172.992 97.9096 172.708 98.0631 172.433 98.2416C172.318 98.316 172.195 98.4016 172.065 98.4915C172.04 98.5085 172.015 98.5258 171.99 98.5431C171.83 98.6538 171.653 98.7753 171.445 98.9082L176.098 98.6231ZM163.65 97.7698C164.102 97.8479 164.491 98.0541 164.928 98.3195C164.99 98.3572 165.054 98.3967 165.12 98.4372C165.494 98.6684 165.921 98.9326 166.402 99.103L163.65 97.7698Z" fill="#38A169" stroke="#38A169"/>
<path d="M200.917 104.914L200.926 104.908C200.949 104.893 200.958 104.881 200.961 104.877C200.964 104.872 200.966 104.866 200.968 104.857C200.971 104.835 200.967 104.796 200.943 104.754C200.932 104.735 200.92 104.721 200.909 104.712C200.904 104.707 200.899 104.704 200.897 104.703C200.891 104.704 200.882 104.708 200.868 104.717C199.301 105.736 197.91 106.027 196.531 105.796C195.185 105.57 193.905 104.855 192.546 103.99L192.525 103.977L192.506 103.962C192.061 103.613 191.551 103.355 191.007 103.204C189.709 102.873 188.153 102.939 186.521 103.133C185.845 103.213 185.168 103.313 184.499 103.412C184.364 103.433 184.228 103.453 184.093 103.473C183.297 103.59 182.515 103.699 181.786 103.758L181.786 103.758C181.75 103.761 181.728 103.769 181.716 103.775C181.704 103.782 181.694 103.79 181.686 103.8C181.667 103.822 181.652 103.859 181.652 103.901C181.652 103.926 181.657 103.941 181.66 103.948L200.917 104.914ZM200.917 104.914L200.908 104.92C200.051 105.53 199.062 105.927 198.021 106.078C196.981 106.229 195.921 106.13 194.927 105.79C194.175 105.521 193.565 105.179 192.926 104.822C192.661 104.673 192.391 104.522 192.105 104.372C191.143 103.87 190.079 103.441 188.606 103.386C187.455 103.341 186.271 103.439 185.111 103.569C184.711 103.613 184.317 103.661 183.928 103.708C183.172 103.8 182.434 103.89 181.706 103.949L200.917 104.914Z" fill="#38A169" stroke="#38A169"/>
<path d="M394.621 191.955L284.185 210.536C283.6 210.639 283.647 211.55 284.185 211.685L300.107 215.583L300.265 214.418C293.837 215.12 287.506 216.523 281.383 218.602C281.283 218.63 281.193 218.683 281.12 218.757C281.048 218.831 280.996 218.922 280.969 219.022C280.943 219.122 280.943 219.228 280.97 219.328C280.996 219.428 281.049 219.519 281.121 219.592C284.345 222.484 288.319 224.406 292.585 225.139C293.33 225.274 293.654 224.125 292.902 223.99C288.849 223.304 285.071 221.488 282 218.752L281.731 219.743C287.754 217.695 293.982 216.309 300.305 215.607C300.93 215.543 301.168 214.616 300.463 214.442L284.542 210.536V211.685L394.977 193.096C395.769 192.969 395.413 191.828 394.661 191.955H394.621Z" fill="#E8E8E8"/>
<path d="M290.02 225.765L284.803 242.095L282.428 249.512L281.478 252.483C280.686 254.979 280.686 255.882 278.113 256.397C274.273 257.189 270.718 257.142 266.958 258.6C263.308 260.042 259.878 261.989 256.768 264.384C249.445 269.93 243.998 277.561 239.018 285.207C233.073 294.319 227.317 303.558 221.482 312.741L216.914 319.928C215.584 322.02 214.412 324.634 212.757 326.457C210.841 328.564 207.682 329.198 205.117 330.157L196.511 333.326L182.181 338.651C178.508 340.022 173.876 341.028 170.718 343.405C167.559 345.782 165.722 350.338 163.735 353.753C160.895 358.639 157.992 363.504 155.026 368.348C149.531 377.392 143.879 386.335 138.067 395.177C124.872 415.298 110.885 434.869 96.1068 453.891C95.6397 454.485 96.4789 455.333 96.946 454.731C119.17 426.129 139.677 396.231 158.359 365.195C160.639 361.397 162.893 357.583 165.12 353.753C167.923 348.92 169.831 344.681 175.317 342.478C184.295 338.873 193.479 335.727 202.544 332.352L208.284 330.22C209.567 329.745 211.76 329.381 212.844 328.469C213.771 327.677 214.768 325.474 215.425 324.428L219.582 317.899L235.369 293.075C245.661 276.879 258.597 256.223 280.615 257.673C280.744 257.67 280.868 257.626 280.971 257.548C281.073 257.469 281.148 257.361 281.185 257.237L291.144 226.066C291.382 225.337 290.234 225.02 289.997 225.749L290.02 225.765Z" fill="#E8E8E8"/>
<path d="M311.46 222.342C308.831 223.427 305.918 224.323 303.4 225.662C302.608 226.074 301.619 226.454 301.294 227.365C300.431 229.853 303.764 230.868 305.474 231.28C316.756 233.981 328.656 234.909 340.23 235.043L340.072 233.871L329.194 237.603C329.107 237.628 329.027 237.673 328.96 237.733C328.893 237.794 328.84 237.869 328.806 237.952C328.772 238.036 328.757 238.127 328.762 238.217C328.768 238.307 328.794 238.395 328.838 238.474C330.334 241.643 333.374 242.689 336.676 243.07C342.534 243.759 348.67 243.268 354.56 243.292L394.146 243.418C394.303 243.418 394.454 243.356 394.566 243.244C394.677 243.133 394.74 242.982 394.74 242.824C394.74 242.667 394.677 242.515 394.566 242.404C394.454 242.292 394.303 242.23 394.146 242.23L355.352 242.103C349.525 242.103 343.564 242.42 337.752 241.984C336.019 241.85 329.234 240.74 330.88 238.284C331.387 237.492 334.72 236.969 335.631 236.652L340.381 235.019C340.517 234.98 340.635 234.892 340.713 234.773C340.79 234.653 340.822 234.51 340.803 234.369C340.784 234.228 340.715 234.098 340.608 234.004C340.502 233.909 340.365 233.857 340.223 233.855C332.528 233.786 324.845 233.219 317.223 232.159C314.112 231.715 309.306 231.707 306.535 230.289L305.023 229.972C303.909 227.484 304.369 226.061 306.401 225.701C307.802 224.671 310.153 224.117 311.768 223.483C312.465 223.198 312.164 222.049 311.452 222.342H311.46Z" fill="#E8E8E8"/>
<path d="M391.517 193.183C415.819 190.939 440.29 191.308 464.513 194.285C464.605 194.284 464.695 194.262 464.776 194.222C464.858 194.181 464.93 194.122 464.986 194.049C465.041 193.977 465.08 193.892 465.098 193.803C465.116 193.713 465.114 193.621 465.091 193.532L462.043 185.101L461.315 185.83L495.572 192.771C495.968 192.85 496.474 192.494 496.3 192.034L493.925 185.909L493.197 186.638C500.045 188.775 507.093 190.206 514.232 190.909C515.024 190.981 515.024 189.792 514.232 189.721C507.2 189.02 500.258 187.602 493.513 185.49C493.11 185.363 492.611 185.799 492.777 186.226L495.152 192.351L495.881 191.622L461.623 184.689C461.22 184.602 460.729 184.959 460.895 185.418L462.676 190.362C463.516 192.692 463.888 192.692 461.425 192.74C458.401 192.835 455.163 192.066 452.131 191.797C445.417 191.21 438.685 190.827 431.934 190.648C418.447 190.305 404.951 190.76 391.517 192.011C390.765 192.082 390.726 193.27 391.517 193.199V193.183Z" fill="#E8E8E8"/>
<path d="M401.081 244.353C397.892 245.379 394.999 247.162 392.65 249.551C392.577 249.625 392.524 249.716 392.498 249.816C392.471 249.916 392.471 250.021 392.497 250.121C392.524 250.221 392.576 250.313 392.648 250.386C392.721 250.46 392.811 250.514 392.911 250.542C409.378 253.79 426.954 251.334 443.58 250.542L443.161 249.527C441.452 251.255 439.357 252.551 437.049 253.307C436.534 253.481 436.431 254.329 437.049 254.448C454.692 257.99 472.645 259.764 490.64 259.741C490.797 259.741 490.948 259.678 491.059 259.567C491.171 259.455 491.233 259.304 491.233 259.147C491.233 258.989 491.171 258.838 491.059 258.726C490.948 258.615 490.797 258.552 490.64 258.552C472.752 258.579 454.905 256.822 437.365 253.307V254.448C439.866 253.626 442.138 252.229 444 250.367C444.079 250.283 444.132 250.177 444.153 250.063C444.174 249.949 444.162 249.832 444.117 249.725C444.073 249.618 443.999 249.526 443.903 249.46C443.808 249.394 443.696 249.357 443.58 249.353C427.065 250.145 409.537 252.586 393.196 249.353L393.457 250.351C395.657 248.099 398.376 246.42 401.374 245.463C402.103 245.225 401.786 244.076 401.058 244.314L401.081 244.353Z" fill="#E8E8E8"/>
<path d="M244.061 330.735C246.872 333.358 250.324 334.19 253.902 335.284C256.59 336.011 259.065 337.369 261.123 339.245C262.405 340.434 263.427 341.456 265.145 341.963C269.507 343.239 275.287 341.29 279.601 340.783C285.482 340.108 291.393 339.746 297.312 339.697C297.469 339.697 297.62 339.634 297.732 339.523C297.843 339.411 297.906 339.26 297.906 339.103C297.906 338.945 297.843 338.794 297.732 338.683C297.62 338.571 297.469 338.508 297.312 338.508C292.134 338.564 286.964 338.825 281.81 339.356C277.179 339.832 272.207 341.282 267.559 341.099C263.355 340.933 260.988 336.789 257.267 335.22C253.071 333.437 248.36 333.16 244.885 329.919C244.323 329.404 243.484 330.236 244.046 330.759L244.061 330.735Z" fill="#E8E8E8"/>
<path d="M162.405 420.596C167.938 423.268 173.729 425.368 179.688 426.864C184.802 428.226 189.766 429.985 195.039 428.749C208.625 425.58 221.997 422.918 235.962 421.999C236.754 421.951 236.754 420.762 235.962 420.81C223.955 421.574 212.035 423.371 200.335 426.182C197.382 426.895 194.279 428.131 191.215 428.147C187.993 428.147 184.501 426.879 181.406 426.079C175.075 424.561 168.921 422.38 163.046 419.574C162.357 419.233 161.755 420.255 162.444 420.596H162.405Z" fill="#E8E8E8"/>
<path d="M206.471 396.707L226.826 404.187C232.851 406.405 237.91 407.76 244.331 407.602C258.225 407.261 272.128 406.809 286.022 406.397C286.814 406.397 286.814 405.185 286.022 405.209L245.875 406.365C242.391 406.468 238.884 406.651 235.456 405.858C232.028 405.066 228.884 403.687 225.686 402.507L206.788 395.558C206.067 395.296 205.759 396.445 206.471 396.707Z" fill="#E8E8E8"/>
<path d="M241.338 332.867L234.118 355.053C233.88 355.782 235.02 356.091 235.258 355.37L242.486 333.184C242.724 332.455 241.576 332.146 241.338 332.867Z" fill="#E8E8E8"/>
<path d="M159.467 424.13C155.382 433.194 151.212 442.217 146.958 451.197C146.634 451.878 147.655 452.488 147.98 451.791C152.239 442.811 156.409 433.791 160.489 424.732C160.805 424.043 159.776 423.433 159.467 424.13Z" fill="#E8E8E8"/>
<path d="M147.188 418.306C142.733 425.564 138.123 432.727 133.357 439.795C132.929 440.429 133.951 441.023 134.378 440.389C139.128 433.327 143.741 426.164 148.217 418.901C148.621 418.251 147.592 417.649 147.188 418.306Z" fill="#E8E8E8"/>
<path d="M291.216 270.604L280.789 282.156C279.554 283.527 276.632 285.746 277.947 287.901C279.19 289.937 283.932 289.969 285.864 290.365L301.777 293.701C302.529 293.851 302.846 292.711 302.094 292.552L292.221 290.484C289.466 289.906 284.858 289.779 282.364 288.416C280.781 288.582 280.195 287.822 280.718 286.118C280.568 285.854 280.473 285.562 280.437 285.26C280.402 284.958 280.428 284.653 280.513 284.361C280.598 284.069 280.74 283.797 280.932 283.562C281.123 283.326 281.36 283.131 281.628 282.988C282.42 281.729 283.766 280.611 284.795 279.518L292.055 271.468C292.562 270.905 291.73 270.057 291.216 270.628V270.604Z" fill="#E8E8E8"/>
<path d="M298.982 347.272L293.915 371.359C293.757 372.104 294.905 372.421 295.056 371.668L300.13 347.589C300.289 346.844 299.141 346.527 298.982 347.272Z" fill="#E8E8E8"/>
<path d="M318.949 327.875C317.77 329.103 312.798 332.74 312.924 334.594C312.988 335.537 313.494 335.727 314.191 336.219C316.566 337.914 320.881 338.524 323.692 339.214C326.859 340.006 330.073 340.592 333.303 341.084C347.3 343.191 361.528 343.199 375.454 345.838C376.198 345.98 376.523 344.839 375.77 344.697C365.027 342.676 354.117 342.161 343.255 341.107C337.239 340.598 331.262 339.698 325.362 338.413C322.86 337.843 320.39 337.161 317.952 336.353C312.663 334.586 317.603 331.013 319.796 328.739C320.327 328.192 319.488 327.352 318.949 327.899V327.875Z" fill="#E8E8E8"/>
<path d="M304.754 423.464L293.06 434.557C291.477 436.039 287.123 438.685 287.811 441.411C288.302 443.368 290.978 443.788 292.601 443.915C297.581 444.28 302.545 444.208 307.525 444.787C327.698 447.164 347.38 453.32 367.861 452.433C368.653 452.433 368.653 451.213 367.861 451.244C350.879 451.981 334.372 447.861 317.738 445.072C310.313 443.728 302.796 442.954 295.253 442.758C294.359 442.758 291.928 443.051 291.295 442.568L290.004 439.098L291.113 438.044C292.198 436.459 294.185 435.128 295.57 433.813L305.601 424.304C306.155 423.773 305.316 422.934 304.754 423.464Z" fill="#E8E8E8"/>
<path d="M414.912 357.834C416.053 368.721 412.537 380.17 411.041 390.938C409.605 401.223 408.5 411.55 407.724 421.919C407.668 422.712 408.856 422.672 408.911 421.919C409.772 410.636 411.009 399.39 412.624 388.181C414.057 378.277 417.153 367.889 416.1 357.834C416.021 357.042 414.833 357.042 414.912 357.834Z" fill="#E8E8E8"/>
<path d="M436.059 258.473C435.468 272.635 435.164 286.797 435.148 300.959C435.148 301.117 435.211 301.268 435.322 301.379C435.434 301.491 435.585 301.553 435.742 301.553C435.9 301.553 436.051 301.491 436.162 301.379C436.274 301.268 436.336 301.117 436.336 300.959C436.336 286.792 436.64 272.63 437.247 258.473C437.247 257.681 436.091 257.681 436.059 258.473Z" fill="#E8E8E8"/>
<path d="M333.548 244.187C337.074 257.15 338.843 270.528 338.805 283.963C338.805 284.121 338.868 284.272 338.979 284.383C339.091 284.495 339.242 284.557 339.399 284.557C339.557 284.557 339.708 284.495 339.819 284.383C339.93 284.272 339.993 284.121 339.993 283.963C340.029 270.422 338.247 256.937 334.696 243.87C334.676 243.795 334.64 243.724 334.592 243.662C334.544 243.6 334.484 243.549 334.416 243.51C334.348 243.472 334.273 243.447 334.196 243.437C334.118 243.427 334.04 243.433 333.964 243.454C333.889 243.475 333.818 243.51 333.757 243.558C333.695 243.606 333.643 243.666 333.605 243.734C333.566 243.802 333.541 243.877 333.532 243.955C333.522 244.033 333.528 244.112 333.548 244.187Z" fill="#E8E8E8"/>
<path d="M381.447 276.792C382.402 288.218 383.722 299.604 385.406 310.951C385.516 311.703 386.664 311.386 386.554 310.634C384.891 299.398 383.585 288.118 382.634 276.792C382.571 276 381.384 276 381.447 276.792Z" fill="#E8E8E8"/>
<path d="M478.843 383.284C480.258 398.751 481.506 414.228 482.588 429.716C482.643 430.508 483.831 430.508 483.775 429.716C482.72 414.223 481.472 398.746 480.031 383.284C479.959 382.492 478.772 382.492 478.843 383.284Z" fill="#E8E8E8"/>
<path d="M164.471 386.676L157.702 408.394C189.191 412.968 205.136 414.289 205.537 412.356C205.87 410.771 195.29 406.881 173.797 400.684C174.579 395.777 175.357 390.872 176.133 385.97L164.471 386.676Z" fill="black"/>
<path d="M122.867 311.085C126.217 314.534 130.017 317.513 134.164 319.944C140.419 323.715 150.442 330.751 165.12 341.678C163.933 345.677 162.766 349.741 161.621 353.872C158.597 364.785 155.928 375.429 153.617 385.804C157.33 387.474 161.237 388.671 165.247 389.369C172.764 390.644 180.472 390.189 187.787 388.038C189.164 380.059 190.297 373.277 191.144 368.063C193.82 351.622 194.643 345.331 195.189 340.767C195.736 336.203 196.124 332.304 196.369 329.674C192.785 324.671 188.934 319.865 184.834 315.277C177.392 306.933 170.433 299.129 159.602 292.631C151.912 288.046 143.509 284.781 134.742 282.973L118.021 305.293C119.496 307.338 121.115 309.273 122.867 311.085Z" fill="white"/>
<path opacity="0.23" d="M131.259 296.68C133.943 299.945 136.904 303.273 140.166 306.616C149.656 316.329 160.337 324.8 171.953 331.829C172.064 336.298 172.151 340.788 172.214 345.299C172.415 360.67 172.327 375.725 171.953 390.463C167.637 390.96 163.275 390.078 159.491 387.943C157.683 386.892 156.057 385.554 154.678 383.981C155.938 373.275 158.182 362.708 161.383 352.414C162.706 348.183 164.131 344.182 165.611 340.418C157.298 335.196 150.949 331.25 147.584 329.159C131.971 319.476 126.627 316.323 121.457 309.548C118.676 305.921 116.419 301.92 114.752 297.663L131.259 296.68Z" fill="#9E9E9E"/>
<path d="M117.515 305.594C122.423 312.805 129.739 317.527 136.777 322.432L163.925 341.329C164.55 341.765 165.144 340.735 164.526 340.299L139.904 323.161C132.256 317.836 123.88 312.86 118.528 304.992C118.101 304.366 117.071 304.992 117.507 305.594H117.515Z" fill="black"/>
<path d="M159.285 293.13C166.269 298.33 172.882 304.009 179.078 310.126C181.86 312.884 184.549 315.728 187.146 318.66C189.521 321.314 196.377 327.376 195.736 331.084C195.609 331.829 196.749 332.154 196.884 331.401C197.43 328.232 194.754 325.855 192.925 323.604C189.584 319.5 186.066 315.538 182.372 311.719C175.405 304.587 167.887 298.016 159.887 292.069C159.27 291.609 158.676 292.639 159.285 293.099V293.13Z" fill="black"/>
<path d="M196.131 330.688C193.287 348.917 190.603 367.17 188.08 385.447C187.977 386.2 189.125 386.517 189.228 385.764C191.751 367.482 194.432 349.229 197.272 331.005C197.39 330.252 196.25 329.935 196.131 330.688Z" fill="black"/>
<path d="M165.959 338.588C162.381 344.768 161.209 352.699 159.515 359.561C157.515 367.627 155.709 375.738 154.1 383.894C153.949 384.639 155.097 384.956 155.248 384.211C156.768 376.547 158.451 368.924 160.299 361.344C162.056 354.165 163.244 345.64 166.989 339.158C167.068 339.022 167.091 338.859 167.051 338.706C167.011 338.553 166.911 338.422 166.775 338.342C166.638 338.262 166.476 338.24 166.323 338.28C166.17 338.32 166.039 338.419 165.959 338.556V338.588Z" fill="black"/>
<path d="M155.129 386.588C159.602 389.639 166.054 390.336 171.327 390.978C177.131 391.675 182.823 391.279 188.072 388.545C188.753 388.197 188.151 387.175 187.47 387.523C182.031 390.352 176.046 390.487 170.053 389.615C165.342 388.926 159.705 388.292 155.699 385.558C155.066 385.13 154.472 386.161 155.097 386.588H155.129Z" fill="black"/>
<path d="M245.059 302.14L258.012 305.309C270.188 289.916 276.973 282.685 278.366 283.614C279.95 284.639 274.841 295.751 263.039 316.949L243.737 312.258C244.18 308.888 244.621 305.515 245.059 302.14Z" fill="black"/>
<path d="M112.329 301.862C112.661 304.726 113.63 307.48 115.163 309.92C118.568 315.269 123.738 317.289 126.319 318.248C135.027 321.497 143.285 319.65 147.378 318.684C169.293 313.518 191.935 305.333 199.948 302.369C206.946 306.093 214.594 309.833 222.907 313.462C230.428 316.727 237.657 319.532 244.505 321.948C247.873 317.293 250.259 312.001 251.52 306.394C252.254 303.114 252.592 299.756 252.525 296.395L211.356 278.369C196.227 277.048 181.027 276.74 165.857 277.45C153.371 278.052 148.819 279.035 145.272 280.001C129.2 284.549 118.409 294.794 112.329 301.862Z" fill="white"/>
<path opacity="0.23" d="M114.894 299.018C115.656 302.564 117.512 305.782 120.199 308.217C128.211 315.023 141.226 310.348 171.66 302.425C179.213 300.46 189.545 297.853 201.951 294.969C206.252 299.262 211.186 302.87 216.581 305.665C226.809 310.833 238.279 313.029 249.691 312.004C247.748 315.702 245.811 319.4 243.88 323.097C238.116 320.966 232.044 318.502 225.757 315.625C217.216 311.718 208.893 307.348 200.826 302.536C189.608 305.475 180.709 308.328 174.906 310.293C156.031 316.679 149.247 320.593 136.959 320.055C133.088 319.872 124.672 319.048 118.077 313.32C116.145 311.64 112.289 308.288 112.654 303.867C112.875 302.056 113.659 300.359 114.894 299.018Z" fill="#9E9E9E"/>
<path d="M112.923 306.909C118.465 319.967 134.061 322.028 146.412 319.5C155.24 317.693 163.83 314.484 172.396 311.759L200.106 302.94C200.826 302.71 200.518 301.561 199.789 301.799C184.248 306.735 168.778 312.036 153.118 316.576C139.714 320.467 120.587 321.877 113.952 306.276C113.651 305.578 112.63 306.181 112.923 306.878V306.909Z" fill="black"/>
<path d="M156.91 278.694C175.01 277.11 193.217 277.195 211.301 278.947C212.092 279.027 212.092 277.838 211.301 277.759C193.217 276.007 175.01 275.922 156.91 277.505C156.158 277.569 156.118 278.757 156.91 278.694Z" fill="black"/>
<path d="M211.902 278.852C225.447 284.111 238.632 290.257 251.369 297.251C252.042 297.615 252.644 296.593 251.971 296.221C239.138 289.187 225.859 283.001 212.219 277.703C211.506 277.426 211.198 278.575 211.902 278.852Z" fill="black"/>
<path d="M200.272 304.073C214.167 310.832 227.982 318.533 243.025 322.495C243.171 322.522 243.322 322.494 243.448 322.415C243.574 322.337 243.666 322.213 243.706 322.07C243.746 321.927 243.731 321.773 243.663 321.641C243.595 321.508 243.481 321.406 243.341 321.354C228.425 317.392 214.673 309.762 200.874 303.051C200.185 302.718 199.583 303.74 200.272 304.073Z" fill="black"/>
<path d="M251.915 296.379C252.094 305.084 249.379 313.601 244.196 320.593C243.745 321.211 244.774 321.806 245.225 321.196C250.515 314.026 253.285 305.306 253.103 296.395C253.103 296.237 253.04 296.086 252.929 295.975C252.818 295.863 252.667 295.801 252.509 295.801C252.352 295.801 252.201 295.863 252.089 295.975C251.978 296.086 251.915 296.237 251.915 296.395V296.379Z" fill="black"/>
<path d="M130.705 216.383C128.955 218.237 128.401 220.401 127.87 222.484C127.203 225.1 127.037 227.818 127.379 230.495C127.973 232.349 128.899 235.138 130.182 238.482C132.537 244.705 135.41 250.719 138.772 256.46C142.24 262.363 143.76 263.726 145.264 264.669C148.431 266.69 151.661 266.888 154.195 267.007C160.243 267.3 168.05 267.545 177.336 267.49C181.021 269.358 185.231 269.917 189.275 269.075C191.31 268.641 193.231 267.782 194.912 266.555C196.284 265.502 197.479 264.237 198.451 262.807C200.32 260.295 203.138 256.508 202.204 254.979C200.803 252.673 191.294 256.191 189.624 256.817C186.283 256.025 183.654 255.232 182.047 254.733C170.718 251.294 166.213 248.458 160.441 250.106C159.172 250.463 157.96 250.996 156.839 251.691C155.612 248.22 153.435 242.008 150.711 234.148C145.557 219.236 143.942 214.196 139.778 213.182C136.698 212.437 132.866 214.086 130.705 216.383Z" fill="white"/>
<path opacity="0.23" d="M127.379 230.495C127.118 227.69 127.332 223.364 128.63 223.079C130.475 222.651 132.755 231.05 137.735 238.823C143.308 247.387 151.165 254.218 160.417 258.544C178.912 266.824 197.216 258.544 198.483 262.807C199.077 264.828 195.419 268.108 191.951 269.273C186.742 271.024 181.968 268.013 181.152 267.482C172.586 267.839 165.381 267.688 159.935 267.435C150.901 267.015 148.059 266.357 145.264 264.669C140.451 261.777 138.02 256.706 135.914 252.578C133.982 248.791 134.948 249.369 132.106 242.967C129.343 236.731 127.775 234.695 127.379 230.495Z" fill="#9E9E9E"/>
<path d="M126.825 230.654C128.884 237.139 131.424 243.461 134.426 249.567C136.801 254.369 139.413 260.906 143.697 264.321C147.813 267.593 154.305 267.775 159.325 268.005C166.593 268.346 173.9 268.1 181.168 268.076C181.326 268.076 181.477 268.014 181.588 267.902C181.699 267.791 181.762 267.64 181.762 267.482C181.762 267.324 181.699 267.173 181.588 267.062C181.477 266.95 181.326 266.888 181.168 266.888C175.341 266.888 169.514 266.991 163.687 266.888C157.67 266.824 149.436 267.229 144.488 263.306C140.173 259.907 137.497 253.117 135.138 248.252C132.332 242.436 129.951 236.425 128.013 230.265C127.775 229.544 126.627 229.853 126.865 230.582L126.825 230.654Z" fill="black"/>
<path d="M147.069 226.945C148.914 231.153 150.656 235.408 152.263 239.71C153.442 242.88 154.345 246.144 155.984 249.092C156.356 249.757 157.377 249.163 157.005 248.489C154.97 244.829 153.838 240.566 152.366 236.652C151.02 233.181 149.587 229.75 148.098 226.351C147.79 225.654 146.768 226.256 147.069 226.953V226.945Z" fill="black"/>
<path d="M157.599 251.659C159.974 249.591 164.978 251.057 167.582 251.572C170.121 252.091 172.627 252.758 175.088 253.568C179.703 255.05 184.177 256.579 189.077 256.643C189.235 256.643 189.386 256.58 189.497 256.469C189.609 256.357 189.671 256.206 189.671 256.048C189.671 255.891 189.609 255.74 189.497 255.628C189.386 255.517 189.235 255.454 189.077 255.454C181.952 255.359 175.492 252.007 168.58 250.557C165.081 249.821 159.768 248.18 156.76 250.819C156.182 251.326 157.029 252.158 157.599 251.659Z" fill="black"/>
<path d="M193.139 255.922C195.039 254.979 198.412 253.933 200.541 254.884C201.016 255.098 202.022 255.953 201.784 256.627C201.713 256.833 200.62 256.999 200.399 257.055C199.116 257.323 197.804 257.421 196.496 257.348C195.704 257.348 195.704 258.513 196.496 258.536C198.119 258.592 205.07 258.457 203.059 255.066C202.267 253.679 200.13 253.521 198.689 253.481C196.551 253.434 194.436 253.925 192.537 254.907C191.856 255.248 192.45 256.278 193.139 255.938V255.922Z" fill="black"/>
<path d="M197.287 258.299C194.893 258.17 192.518 258.784 190.487 260.058C189.481 260.707 188.389 261.84 189.639 262.791C191.144 263.94 194.176 263.187 195.862 262.791C197.849 262.356 199.623 261.373 200.478 259.456C200.787 258.758 199.757 258.156 199.449 258.853C198.261 261.524 195.071 261.904 192.466 262.023C191.896 262.023 190.716 262.308 191.08 261.032C191.191 260.668 192.553 260.24 192.838 260.145C194.253 259.592 195.77 259.349 197.287 259.432C198.079 259.432 198.079 258.267 197.287 258.243V258.299Z" fill="black"/>
<path d="M190.835 262.031C189.006 263.33 188.46 265.707 191.215 266.23C194.216 266.809 197.549 264.796 199.433 262.633C199.94 262.062 199.1 261.223 198.594 261.793C197.506 263.086 196.093 264.065 194.501 264.63C193.758 264.913 192.975 265.074 192.181 265.105C190.597 265.105 190.035 264.051 191.437 263.061C192.054 262.617 191.437 261.587 190.835 262.031Z" fill="black"/>
<path d="M189.829 265.129C188.61 265.921 186.932 268.084 189.038 268.988C190.93 269.78 193.646 267.942 195.213 267.078C195.886 266.706 195.284 265.683 194.619 266.048C193.63 266.604 192.609 267.104 191.563 267.545C191.129 267.792 190.644 267.936 190.146 267.965C189.544 268.068 189.354 267.664 189.608 266.753C189.845 266.519 190.111 266.317 190.4 266.151C191.041 265.739 190.447 264.717 189.798 265.129H189.829Z" fill="black"/>
<path d="M188.389 268.346C188.417 268.642 188.508 268.929 188.654 269.188C188.8 269.448 188.999 269.673 189.237 269.851C189.476 270.029 189.749 270.154 190.039 270.22C190.33 270.285 190.63 270.289 190.922 270.232C191.688 270.066 192.414 269.749 193.057 269.3C193.7 268.852 194.247 268.279 194.667 267.617C195.118 266.999 194.089 266.404 193.646 267.022C193.196 267.665 192.616 268.205 191.943 268.607C191.373 268.948 189.703 269.606 189.568 268.354C189.481 267.601 188.294 267.561 188.381 268.354L188.389 268.346Z" fill="black"/>
<path d="M124.236 207.572C121.107 211.799 118.306 216.259 115.86 220.916C98.8224 253.402 103.494 287.402 107.492 305.008C115.656 307.468 124.418 307.028 132.296 303.764C148.391 296.878 152.88 280.667 153.379 278.63C151.668 273.831 150.623 268.819 150.276 263.734C149.888 257.887 150.569 253.759 151.21 248.838C152.002 242.943 152.896 234.433 153.379 223.705L124.236 207.572Z" fill="#38A169"/>
<path d="M155.976 173.786C158.954 176.575 161.636 179.663 163.98 183.002C165.172 184.694 166.272 186.451 167.274 188.263L164.004 188.588C166.865 193.324 167.985 198.912 167.171 204.387C166.545 205.185 165.806 205.887 164.978 206.471C163.828 207.236 162.556 207.798 161.217 208.135C159.305 208.719 157.344 209.13 155.358 209.363L150.371 214.505L140.419 209.846L142.794 205.671C142.197 206.196 141.492 206.582 140.728 206.802C139.964 207.021 139.16 207.068 138.376 206.938C137.231 206.693 136.209 206.051 135.491 205.124C134.773 204.197 134.406 203.047 134.454 201.875C134.503 200.704 134.964 199.587 135.755 198.723C136.547 197.859 137.618 197.303 138.78 197.153C136.207 188.366 138.954 179.674 145.042 175.759C149.341 173.073 154.036 173.493 155.976 173.786Z" fill="white"/>
<path opacity="0.22" d="M153.87 174.214C153.353 174.447 152.85 174.712 152.366 175.007C149.714 176.74 147.66 179.25 146.483 182.193C144.544 187.565 147.141 192.644 147.402 193.136C152.239 202.232 166.545 202.351 166.252 205.378C166.157 206.368 164.566 206.962 162.23 207.755C158.283 209.147 154.036 209.461 149.927 208.666L145.035 211.986L140.458 209.846C143.142 205.821 143.625 204.831 143.443 204.72C143.261 204.609 141.931 206.764 139.746 207.018C138.88 207.083 138.013 206.906 137.243 206.505C136.472 206.105 135.828 205.498 135.384 204.752C134.156 202.533 135.304 198.809 138.82 196.709C138.366 194.792 138.162 192.824 138.21 190.854C138.273 188.088 138.44 180.815 143.807 176.75C147.544 173.882 152.025 174.008 153.87 174.214Z" fill="#9E9E9E"/>
<path d="M155.406 161.267C156.974 161.636 158.351 162.57 159.275 163.891C160.199 165.212 160.605 166.826 160.415 168.427C160.225 170.028 159.453 171.503 158.246 172.57C157.038 173.638 155.481 174.223 153.87 174.214C150.411 176.113 147.336 178.642 144.805 181.67C143.386 183.383 142.155 185.242 141.131 187.217V198.032L136.698 198.46C135.82 199.034 135.16 199.885 134.823 200.878C134.486 201.871 134.49 202.949 134.837 203.938C135.183 204.928 135.851 205.773 136.734 206.339C137.617 206.904 138.663 207.157 139.706 207.057C140.481 206.93 141.216 206.623 141.851 206.161C142.486 205.699 143.005 205.094 143.364 204.395C143.846 204.554 144.292 204.809 144.674 205.144C145.056 205.479 145.367 205.887 145.589 206.344C146.697 209.205 142.161 212.984 141.749 213.333C136.682 217.556 129.549 216.431 127.276 215.979C121.6 215.472 117.079 211.74 116.066 207.002C115.147 202.771 117.364 199.276 117.918 198.452C116.474 197.628 115.333 196.36 114.663 194.837C113.994 193.313 113.831 191.615 114.201 189.992C114.57 188.369 115.451 186.908 116.713 185.825C117.976 184.742 119.553 184.093 121.212 183.976C116.913 177.74 118.188 169.658 123.199 165.792C126.984 162.876 132.565 162.622 137.26 165.182C139.101 162.609 141.762 160.74 144.805 159.881C148.384 158.937 152.19 159.434 155.406 161.267Z" fill="#461EB8"/>
<path d="M155.556 174.206C159.697 178.739 163.79 183.144 166.767 188.564L167.274 187.668L163.996 187.859C163.204 187.898 163.204 189.087 163.996 189.047L167.274 188.857C167.378 188.855 167.479 188.826 167.569 188.773C167.658 188.721 167.733 188.645 167.784 188.555C167.836 188.465 167.864 188.363 167.864 188.259C167.865 188.155 167.839 188.053 167.788 187.962C164.764 182.415 160.615 177.986 156.396 173.367C155.881 172.804 155.042 173.644 155.556 174.206Z" fill="black"/>
<path d="M163.489 188.889C166.242 193.556 167.331 199.02 166.577 204.387C166.474 205.179 167.662 205.179 167.764 204.387C168.531 198.801 167.384 193.12 164.511 188.271C164.426 188.145 164.297 188.057 164.149 188.023C164.002 187.99 163.847 188.014 163.717 188.091C163.587 188.168 163.49 188.291 163.448 188.437C163.406 188.582 163.421 188.738 163.489 188.873V188.889Z" fill="black"/>
<path d="M143.491 204.91C147.908 210.456 155.034 210.789 161.375 208.729C162.096 208.491 161.787 207.343 161.059 207.58C155.097 209.522 148.502 209.339 144.33 204.062C143.863 203.468 143.024 204.316 143.491 204.91Z" fill="black"/>
<path d="M142.849 204.054C142.575 204.655 142.155 205.178 141.628 205.576C141.1 205.973 140.482 206.232 139.828 206.329C139.175 206.425 138.508 206.357 137.888 206.13C137.268 205.903 136.715 205.525 136.278 205.029C134.291 202.81 135.439 199.641 137.862 198.421C138.55 198.08 137.949 197.05 137.268 197.391C134.101 198.975 132.921 203.119 135.407 205.869C135.975 206.489 136.686 206.96 137.478 207.243C138.269 207.525 139.117 207.61 139.949 207.489C140.781 207.369 141.571 207.048 142.25 206.553C142.929 206.057 143.477 205.404 143.847 204.649C144.195 203.975 143.166 203.373 142.818 204.054H142.849Z" fill="black"/>
<path d="M154.305 209.109C153.422 210.518 152.44 211.863 151.368 213.135C150.877 213.713 151.709 214.561 152.207 213.975C153.347 212.629 154.389 211.205 155.327 209.712C155.738 209.062 154.709 208.46 154.305 209.109Z" fill="black"/>
<path d="M155.232 182.447C154.865 182.053 154.616 181.564 154.511 181.037L153.783 181.765C154.097 181.86 154.38 182.04 154.599 182.284C154.818 182.529 154.966 182.829 155.026 183.152L155.438 182.423C155.438 182.423 155.438 182.423 155.382 182.352C155.018 181.678 153.989 182.28 154.361 182.954C154.494 183.195 154.702 183.385 154.954 183.495C155.206 183.606 155.487 183.63 155.754 183.564C155.905 183.522 156.033 183.421 156.11 183.285C156.187 183.148 156.207 182.986 156.166 182.835C156.053 182.313 155.8 181.832 155.435 181.442C155.069 181.053 154.605 180.77 154.092 180.624C153.991 180.6 153.886 180.601 153.786 180.629C153.686 180.657 153.595 180.71 153.522 180.783C153.449 180.857 153.396 180.948 153.368 181.048C153.34 181.147 153.338 181.253 153.363 181.353C153.527 182.079 153.882 182.746 154.393 183.287C154.915 183.849 155.754 183.009 155.232 182.447Z" fill="black"/>
<path d="M148.566 180.561C148.723 180.561 148.874 180.498 148.985 180.387C149.097 180.276 149.159 180.124 149.159 179.967C149.159 179.809 149.097 179.658 148.985 179.547C148.874 179.435 148.723 179.373 148.566 179.373C148.408 179.373 148.257 179.435 148.146 179.547C148.034 179.658 147.972 179.809 147.972 179.967C147.972 180.124 148.034 180.276 148.146 180.387C148.257 180.498 148.408 180.561 148.566 180.561Z" fill="black"/>
<path d="M149.254 179.42C149.254 177.907 150.434 175.118 152.421 175.609C153.165 175.791 153.482 174.642 152.738 174.46C149.975 173.771 148.091 177.083 148.098 179.42C148.098 179.578 148.161 179.729 148.272 179.84C148.384 179.952 148.535 180.014 148.692 180.014C148.85 180.014 149.001 179.952 149.112 179.84C149.223 179.729 149.286 179.578 149.286 179.42H149.254Z" fill="black"/>
<path d="M160.465 193.603C161.366 194.134 162.425 194.33 163.457 194.156C164.488 193.982 165.424 193.45 166.102 192.652C166.593 192.066 165.754 191.218 165.263 191.812C164.775 192.427 164.083 192.846 163.312 192.991C162.542 193.137 161.744 193 161.067 192.605C160.932 192.536 160.776 192.521 160.631 192.564C160.486 192.606 160.362 192.702 160.285 192.833C160.208 192.963 160.184 193.118 160.218 193.265C160.251 193.413 160.34 193.542 160.465 193.627V193.603Z" fill="black"/>
<path d="M139.96 221.74C139.495 218.751 139.766 215.693 140.751 212.834C141.242 211.463 143.768 204.363 149.46 203.365C151.42 203.022 153.437 203.412 155.129 204.458C157.615 206.122 158.296 209.038 158.589 210.1C159.839 214.91 163.204 223.174 169.158 235.931C172.218 234.431 175.376 233.142 178.611 232.072C185.8 229.695 189.251 229.734 195.736 227.445C199.397 226.138 202.926 224.485 206.273 222.508C206.99 219.911 208.695 217.698 211.024 216.344C212.774 215.303 214.833 214.91 216.844 215.231C218.854 215.552 220.689 216.568 222.028 218.103C224.26 218.072 226.421 218.887 228.077 220.385C228.825 221.093 229.427 221.941 229.85 222.881C228.394 224.521 227.238 225.899 226.446 226.842C225.733 227.774 224.972 228.668 224.166 229.52C223.024 230.771 221.647 231.784 220.112 232.5C216.89 233.72 215.085 231.002 211.214 231.208C208.838 231.327 207.421 232.46 203.771 235.17C199.979 237.975 195.902 240.392 192.276 243.402C188.04 246.921 181.065 251.722 169.095 257.197C155.812 248.825 145.583 236.387 139.928 221.732L139.96 221.74Z" fill="white"/>
<path opacity="0.35" d="M142.936 208.349C143.958 210.971 145.407 214.513 147.323 218.649C156.079 237.373 161.684 249.361 169.728 250.391C178.001 251.461 180.654 239.393 198.229 231.755C203.887 229.311 209.898 227.784 216.035 227.231C217.839 225.962 219.458 224.45 220.849 222.738C222.733 220.4 223.224 218.911 224.498 218.657C225.567 218.451 227.261 219.061 229.906 222.92C228.995 223.95 227.641 225.503 226.05 227.452C223.873 230.107 223.588 230.622 222.883 231.216C221.3 232.579 218.133 233.498 211.372 231.264C208.601 232.785 204.476 235.154 199.67 238.395C196.614 240.447 194.469 242.04 191.571 244.203C180.923 252.126 177.582 255.676 170.987 256.88C169.958 257.069 168.919 257.19 167.875 257.245C162.07 253.004 156.813 248.059 152.223 242.523C147.639 236.976 145.375 232.793 142.541 227.548C140.854 224.426 140.055 222.579 139.785 220.179C139.2 214.902 141.496 210.583 142.936 208.349Z" fill="#9E9E9E"/>
<path d="M143.863 209.965C145.897 206.075 150.719 200.948 155.145 205.496C157.813 208.23 158.905 212.255 160.322 215.749C162.745 221.713 165.086 227.709 167.345 233.736C167.606 234.441 168.754 234.14 168.485 233.419C166.574 228.327 164.606 223.25 162.579 218.19C160.9 213.998 159.499 208.444 156.498 204.958C151.693 199.411 145.486 204.3 142.834 209.363C142.485 210.044 143.507 210.647 143.863 209.965Z" fill="black"/>
<path d="M139.382 221.898C145.29 236.211 155.053 248.601 167.582 257.689C168.2 258.14 168.794 257.11 168.184 256.666C155.897 247.747 146.323 235.591 140.53 221.549C140.237 220.852 139.089 221.161 139.382 221.866V221.898Z" fill="black"/>
<path d="M167.408 237.65C180.566 229.726 197.01 230.337 209.86 221.74C210.493 221.32 209.899 220.29 209.266 220.717C196.424 229.299 179.973 228.688 166.814 236.628C166.696 236.714 166.613 236.842 166.583 236.986C166.552 237.13 166.576 237.28 166.65 237.407C166.724 237.534 166.843 237.63 166.983 237.674C167.123 237.719 167.274 237.711 167.408 237.65Z" fill="black"/>
<path d="M167.994 257.863C174.629 257.459 180.479 252.19 185.76 248.608C192.695 243.918 199.523 239.079 206.242 234.092C206.851 233.641 206.242 232.611 205.64 233.062C199.723 237.436 193.735 241.707 187.676 245.875C182.134 249.678 174.953 256.254 167.994 256.674C167.202 256.722 167.202 257.91 167.994 257.863Z" fill="black"/>
<path d="M206.835 222.809C208.348 220.828 209.812 218.174 211.681 216.542C214.056 214.482 215.798 216.082 218.363 215.86C219.115 215.789 219.154 214.601 218.363 214.672C215.988 214.878 213.985 213.349 211.815 214.822C209.377 216.478 207.564 219.917 205.814 222.215C205.347 222.817 206.376 223.411 206.835 222.809Z" fill="black"/>
<path d="M206.447 234.401C207.865 232.912 209.321 231.604 211.522 231.478C213.161 231.383 215.251 232.349 216.858 232.666C218.584 233.007 220.223 233.355 221.767 232.357C222.408 231.945 221.815 230.915 221.173 231.335C218.347 233.157 214.048 230.146 211.016 230.313C208.728 230.44 207.112 231.985 205.608 233.561C205.078 234.116 205.917 234.956 206.447 234.401Z" fill="black"/>
<path d="M219.17 215.757C220.227 216.276 221.053 217.168 221.49 218.261C221.759 218.966 222.907 218.657 222.63 217.944C222.111 216.553 221.091 215.406 219.772 214.727C219.091 214.387 218.489 215.409 219.17 215.757Z" fill="black"/>
<path d="M222.305 218.61C224.182 219.054 229.177 220.4 229.288 222.881C229.328 223.673 230.515 223.673 230.476 222.881C230.325 219.569 225.227 218.087 222.614 217.461C221.878 217.287 221.561 218.435 222.305 218.61Z" fill="black"/>
<path d="M221.997 223.134C224.525 224.309 227.383 224.567 230.08 223.863C230.816 223.681 230.5 222.532 229.763 222.722C227.376 223.349 224.846 223.134 222.598 222.112C221.902 221.795 221.3 222.817 221.997 223.134Z" fill="black"/>
<path d="M221.672 226.51C222.909 226.979 224.253 227.094 225.552 226.842C226.851 226.59 228.054 225.981 229.027 225.083C229.597 224.576 228.758 223.736 228.188 224.243C227.362 224.99 226.343 225.491 225.248 225.688C224.152 225.886 223.023 225.772 221.989 225.361C221.276 225.091 220.967 226.24 221.672 226.51Z" fill="black"/>
<path d="M219.123 228.435C220.367 229.119 221.801 229.377 223.205 229.168C224.609 228.959 225.906 228.295 226.897 227.278C227.428 226.731 226.589 225.892 226.058 226.438C225.255 227.273 224.199 227.82 223.055 227.995C221.91 228.169 220.74 227.962 219.724 227.405C219.051 227.04 218.45 228.07 219.123 228.435Z" fill="black"/>
<path d="M220.445 233.031C222.416 232.065 224.141 230.661 225.488 228.926C225.955 228.332 225.124 227.484 224.649 228.086C223.368 229.743 221.724 231.082 219.843 232.001C219.154 232.341 219.756 233.363 220.445 233.031Z" fill="black"/>
<path d="M357.632 56.8909C355.633 57.1294 353.726 57.8708 352.09 59.0461C349.926 60.718 348.353 63.0392 347.601 65.6701C346.16 69.9092 346.81 73.3321 347.696 79.1401C348.243 82.6344 349.082 88.1887 350.032 95.415C349.48 96.3198 349.021 97.2781 348.662 98.2754C347.921 100.387 347.606 102.625 347.736 104.86C347.783 106.492 347.332 110.026 346.43 117.094C345.503 124.312 344.577 124.074 343.263 132.148C342.93 134.232 341.117 145.523 342.835 146.022C343.5 146.213 344.514 144.755 345.329 143.36C346.819 143.047 348.225 142.421 349.454 141.522C350.095 141.039 354.347 137.734 353.476 133.709C353.097 132.197 352.179 130.876 350.895 129.993C351.908 128.155 353.191 125.691 354.529 122.727C356.1 119.199 357.488 115.592 358.685 111.92C362.945 98.3546 362.01 82.3253 361.852 80.0592C361.338 72.2001 359.922 64.4262 357.632 56.8909Z" fill="white"/>
<path opacity="0.23" d="M357.213 60.1316C356.722 60.2346 358.274 66.3991 358.725 74.5761C359.517 88.4819 356.579 99.5273 353.856 109.86C352.099 116.522 349.931 123.069 347.364 129.462C348.274 130.627 348.958 131.952 349.383 133.369C350.657 137.75 348.702 141.15 349.462 141.506C350.222 141.863 353.42 138.955 353.492 135.246C353.464 133.167 352.633 131.179 351.172 129.7C352.225 127.687 353.595 124.946 355.059 121.571C355.574 120.39 356.397 118.496 357.228 116.262C358.617 112.421 359.741 108.49 360.593 104.495C362.495 94.668 362.763 84.5937 361.385 74.6791C360.094 66.9299 357.727 60.0206 357.213 60.1316Z" fill="#9E9E9E"/>
<path d="M352.201 58.325C347.237 61.1141 346.192 67.239 346.398 72.4923C346.707 80.2018 348.377 87.9827 349.478 95.6052C349.581 96.3579 350.729 96.0409 350.618 95.2882C349.723 89.0366 348.702 82.7849 347.942 76.5174C347.245 70.7015 346.889 62.675 352.803 59.3471C352.928 59.2625 353.017 59.1332 353.05 58.9856C353.083 58.838 353.059 58.6832 352.983 58.5527C352.906 58.4223 352.782 58.3262 352.637 58.2838C352.492 58.2415 352.336 58.2562 352.201 58.325Z" fill="black"/>
<path d="M351.877 93.3945C347.815 95.9379 347.506 100.375 347.166 104.788C346.575 112.25 345.603 119.676 344.252 127.038C344.118 127.783 345.266 128.107 345.4 127.355C346.295 122.442 347.047 117.506 347.609 112.546C348.243 106.999 347.11 97.7762 352.478 94.4245C353.12 94.0204 352.526 92.9904 351.877 93.3945Z" fill="black"/>
<path d="M361.171 78.9262C363.04 96.5111 359.239 114.233 350.325 129.502C350.245 129.639 350.223 129.801 350.263 129.954C350.303 130.107 350.402 130.238 350.539 130.318C350.675 130.398 350.838 130.42 350.991 130.38C351.143 130.34 351.274 130.241 351.354 130.104C360.368 114.651 364.215 96.7206 362.335 78.9262C362.256 78.1734 361.068 78.1338 361.147 78.9262H361.171Z" fill="black"/>
<path d="M346.129 129.201C347.467 130.21 348.405 131.661 348.773 133.297C349.042 133.89 349.203 134.526 349.248 135.175C349.058 136.142 347.332 134.803 346.873 134.502C346.247 134.066 345.654 135.096 346.279 135.532C347.071 136.102 348.448 137.196 349.533 136.966C350.618 136.736 350.531 135.69 350.325 134.858C349.802 132.307 348.916 129.684 346.659 128.171C346.026 127.743 345.432 128.773 346.057 129.201H346.129Z" fill="black"/>
<path d="M344.205 127.125C342.979 130.443 342.181 133.905 341.83 137.425C341.624 139.628 341.038 143.384 342.748 145.238C346.168 148.946 345.915 140.674 345.646 139.161C345.527 138.368 344.379 138.733 344.498 139.478C344.833 140.923 344.884 142.419 344.648 143.883C343.102 143.688 342.503 142.837 342.851 141.332C342.82 140.027 342.875 138.722 343.017 137.425C343.363 134.012 344.142 130.657 345.337 127.442C345.598 126.721 344.45 126.404 344.189 127.125H344.205Z" fill="black"/>
<path d="M347.388 143.297C347.281 141.903 347.518 140.505 348.076 139.224C348.124 139.113 348.48 138.305 348.686 138.432C348.892 138.559 348.844 139.295 348.852 139.43C348.9 140.132 348.9 140.836 348.852 141.538C348.813 142.33 350 142.33 350.04 141.538C350.103 140.428 350.428 136.348 348.195 137.362C347.808 137.605 347.475 137.924 347.215 138.3C346.955 138.676 346.774 139.101 346.683 139.549C346.279 140.766 346.113 142.049 346.192 143.328C346.232 144.121 347.419 144.121 347.38 143.328L347.388 143.297Z" fill="black"/>
<path d="M350.261 139.042C350.383 137.774 350.812 136.556 351.512 135.492L350.578 135.611C350.847 135.938 351.019 136.334 351.076 136.754C351.134 137.173 351.074 137.601 350.903 137.988C350.618 138.701 351.766 139.01 352.043 138.305C352.271 137.715 352.334 137.074 352.223 136.451C352.113 135.828 351.834 135.247 351.417 134.771C351.353 134.708 351.274 134.66 351.188 134.631C351.103 134.603 351.011 134.594 350.922 134.605C350.832 134.616 350.746 134.648 350.67 134.697C350.594 134.747 350.53 134.813 350.483 134.89C349.679 136.137 349.195 137.563 349.074 139.042C349.003 139.834 350.19 139.795 350.261 139.042Z" fill="black"/>
<path d="M352.336 135.294C352.198 134.764 352.232 134.204 352.433 133.694C352.633 133.184 352.99 132.751 353.452 132.457L352.581 132.109C353.036 133.585 352.949 135.176 352.336 136.593C352.043 137.299 353.191 137.6 353.484 136.91C354.166 135.286 354.25 133.472 353.721 131.792C353.696 131.705 353.651 131.625 353.591 131.558C353.53 131.491 353.455 131.438 353.372 131.404C353.288 131.369 353.198 131.354 353.107 131.36C353.017 131.365 352.929 131.391 352.85 131.435C352.169 131.867 351.641 132.503 351.342 133.253C351.043 134.003 350.989 134.828 351.188 135.611C351.37 136.348 352.518 136.039 352.336 135.294Z" fill="black"/>
<path d="M347.087 143.804C348.809 142.933 350.379 141.788 351.734 140.413C351.839 140.3 351.896 140.151 351.893 139.997C351.891 139.843 351.828 139.696 351.719 139.587C351.611 139.478 351.464 139.416 351.31 139.413C351.156 139.411 351.007 139.468 350.895 139.573C349.607 140.863 348.118 141.933 346.485 142.742C345.804 143.091 346.406 144.113 347.087 143.772V143.804Z" fill="black"/>
<path d="M352.217 139.573C353.027 138.28 353.646 136.876 354.054 135.405C354.096 135.253 354.076 135.09 353.998 134.952C353.92 134.815 353.79 134.714 353.638 134.672C353.486 134.63 353.323 134.65 353.186 134.728C353.049 134.806 352.948 134.936 352.906 135.088C352.528 136.46 351.949 137.768 351.188 138.971C350.784 139.62 351.813 140.215 352.217 139.573Z" fill="black"/>
<path d="M376.269 197.026L376.697 205.488C358.186 211.827 349.074 215.525 349.359 216.581C349.707 217.796 363.016 215.335 389.285 209.197C388.345 203.914 387.406 198.632 386.466 193.35L376.269 197.026Z" fill="black"/>
<path d="M394.249 100.415C393.56 101.072 392.167 103.346 389.38 107.887C385.049 114.954 382.326 119.392 379.088 125.77C373.976 135.149 370.382 145.279 368.439 155.784C365.367 171.94 366.919 188.619 367.798 195.877C370.035 197.307 372.545 198.254 375.169 198.658C386.205 200.322 394.653 191.163 395.65 190.046C392.43 178.78 392.234 166.865 395.08 155.499C397.075 152.654 400.1 148.368 403.916 143.336C409.458 135.96 411.548 133.654 414.406 129.866C424.84 116.04 430.565 108.473 428.261 102.871C424.738 94.3453 403.132 92.0158 394.249 100.415Z" fill="white"/>
<path opacity="0.21" d="M414.437 116.04C412.078 119.162 409.722 122.331 407.367 125.548C399.852 135.828 392.811 145.988 386.245 156.03C386.3 159.001 386.245 162.123 386.023 165.372C385.21 177.22 382.507 188.861 378.019 199.855C384.17 198.23 389.93 195.379 394.953 191.472L394.249 157.139C396.112 154.303 398.036 151.447 400.02 148.574C406.892 138.669 413.899 129.557 420.874 121.166L414.437 116.04Z" fill="#9E9E9E"/>
<path d="M392.119 102.34C383.759 115.81 375.287 129.462 370.521 144.675C365.47 160.776 365.985 178.168 367.355 194.808C367.418 195.6 368.605 195.6 368.542 194.808C367.18 178.279 366.65 160.982 371.669 144.984C376.42 129.882 384.843 116.286 393.141 102.934C393.552 102.285 392.523 101.69 392.119 102.34Z" fill="black"/>
<path d="M421.602 120.247C411.015 132.735 401.068 145.721 391.763 159.207C391.327 159.841 392.357 160.435 392.792 159.809C402.034 146.419 411.917 133.511 422.442 121.087C422.933 120.509 422.101 119.661 421.602 120.247Z" fill="black"/>
<path d="M394.13 156.727C392.398 167.845 392.72 179.187 395.08 190.188C395.239 190.933 396.386 190.624 396.22 189.871C393.907 179.078 393.585 167.953 395.27 157.044C395.389 156.252 394.249 155.974 394.13 156.727Z" fill="black"/>
<path d="M368.297 196.551C375.96 203.119 388.936 197.668 395.381 191.9C395.951 191.393 395.104 190.553 394.542 191.06C388.651 196.337 376.23 201.796 369.136 195.711C368.558 195.212 367.711 196.052 368.297 196.551Z" fill="black"/>
<path d="M426.796 197.121C427.989 200.983 429.187 204.844 430.39 208.705C413.501 218.594 405.32 224.056 405.847 225.091C406.465 226.312 419.042 221.449 443.58 210.504L438.189 195.125L426.796 197.121Z" fill="black"/>
<path d="M400.757 104.487L408.175 110.573L410.55 115.248C410.289 117.157 409.925 119.875 409.529 123.171C409.529 123.171 408.848 128.718 408.413 133.131C407.515 141.73 407.335 150.388 407.874 159.017C408.666 168.185 411.041 176.623 415.839 193.532C416.955 197.494 417.945 200.742 418.618 202.929C420.763 202.858 423.843 202.699 427.548 202.287C430.056 202.1 432.544 201.713 434.99 201.131C437.12 200.536 444.578 198.444 446.478 193.421C447.65 190.315 446.074 187.748 442.519 179.951C440.659 175.918 438.046 169.999 435.149 162.519C435.758 159.104 436.732 153.803 438.102 147.266C440.2 137.109 442.456 126.792 442.456 126.792C444.95 115.414 445.338 114.067 445.251 110.755C445.164 107.443 444.926 101.469 441.395 95.7795C440.936 95.0505 440.659 94.686 436.399 89.3852L429.876 81.3032L400.757 104.487Z" fill="white"/>
<path opacity="0.25" d="M422.798 90.8114C425.097 96.3021 426.901 101.987 428.189 107.799C433.533 131.863 428.823 152.678 424.801 164.944C427.353 167.368 429.568 170.123 431.388 173.137C437.959 184.055 437.342 195.323 436.772 200.148C440.664 199.039 444.077 196.664 446.47 193.397C442.712 182.832 438.949 172.268 435.18 161.703C438.094 142.172 440.588 132.267 442.432 126.784C444.057 122.087 444.972 117.173 445.148 112.205C445.308 109.726 445.157 107.237 444.697 104.796C444.396 103.291 443.509 99.6144 438.292 91.8177C435.633 87.8478 432.699 84.0696 429.512 80.5108L422.798 90.8114Z" fill="#9E9E9E"/>
<path d="M400.298 104.907L407.716 110.993C408.302 111.468 409.149 110.636 408.555 110.153L401.137 104.067C400.551 103.584 399.704 104.424 400.298 104.907Z" fill="black"/>
<path d="M430.089 83.2603C434.42 87.8956 438.838 92.6735 441.728 98.3784C445.33 105.51 444.855 112.474 443.264 120.089C440.35 134.003 437.342 147.908 434.381 161.814C434.222 162.559 435.362 162.884 435.529 162.131L440.698 137.838C442.345 130.104 444.443 122.323 445.488 114.487C447.254 101.239 439.463 91.5562 430.937 82.4204C430.406 81.8579 429.575 82.6978 430.089 83.2603Z" fill="black"/>
<path d="M409.948 115.248C407.977 130.144 405.99 145.214 407.375 160.253C408.65 174.246 413.155 187.589 417.668 200.806C417.913 201.527 419.061 201.218 418.816 200.489C414.152 186.892 409.521 173.161 408.42 158.732C407.32 144.303 409.212 129.645 411.12 115.248C411.223 114.455 410.036 114.503 409.933 115.248H409.948Z" fill="black"/>
<path d="M434.61 162.86C439.13 171.991 442.739 181.545 445.385 191.385C445.406 191.46 445.441 191.531 445.488 191.593C445.536 191.655 445.595 191.707 445.663 191.746C445.73 191.785 445.805 191.81 445.882 191.82C445.96 191.83 446.038 191.825 446.114 191.805C446.189 191.784 446.26 191.749 446.322 191.702C446.384 191.654 446.435 191.595 446.474 191.527C446.513 191.459 446.539 191.385 446.549 191.307C446.559 191.23 446.554 191.151 446.533 191.076C443.855 181.129 440.203 171.471 435.632 162.242C435.291 161.56 434.27 162.163 434.61 162.844V162.86Z" fill="black"/>
<path d="M419.599 203.04C428.878 203.547 441.213 201.931 446.985 193.706C447.42 193.08 446.391 192.486 445.955 193.104C440.485 200.909 428.34 202.327 419.599 201.82C418.808 201.772 418.808 202.961 419.599 203.008V203.04Z" fill="black"/>
<path d="M354.046 57.7704C352.866 61.4706 353.721 64.9015 354.378 67.6114C356.587 76.7789 363.253 82.3016 365.272 83.9338C374.717 91.5404 381.898 89.1792 388.556 97.3166C390.35 99.5353 391.748 102.047 392.689 104.741C395.664 105.343 398.713 105.484 401.731 105.161C419.196 103.22 428.95 85.7483 430.509 82.8404C427.509 75.5349 418.974 57.7228 400.258 48.6979C390.757 44.1023 383.252 44.0468 381.051 44.0864C371.907 44.2528 357.213 47.8818 354.046 57.7704Z" fill="#38A169"/>
<path d="M370.292 29.5706C368.092 29.6744 365.91 30.0171 363.784 30.5927C354.347 33.0648 348.504 39.5542 345.963 42.8821C343.073 45.1165 339.851 45.4572 338.204 44.0548C337.301 43.2624 336.525 41.6777 336.961 40.4337C337.072 40.1168 337.285 39.7444 338.885 38.5083C339.961 37.6763 340.888 37.0504 341.529 36.6383C341.541 33.0765 342.457 29.576 344.189 26.4646C345.353 24.4044 348.448 18.9214 354.94 17.4555C363.333 15.5697 369.73 22.3285 370.165 22.796C372.272 25.1317 373.714 27.9916 374.337 31.076L370.292 29.5706Z" fill="#EC615B"/>
<path d="M362.24 30.5927C361.876 31.4326 362.43 32.2963 363.665 35.0061C364.623 37.09 365.312 38.8173 365.739 39.9345C355.835 39.9345 348.607 44.1498 347.918 48.5553C347.713 50.4025 347.985 52.2716 348.71 53.9829C349.508 55.9088 350.82 57.578 352.502 58.8083C352.638 60.8999 353.533 62.8696 355.019 64.3465C356.505 65.8235 358.479 66.7057 360.57 66.8269C363.507 67.025 365.644 65.6384 367.83 64.228C370.12 62.9482 372.004 61.0478 373.264 58.7451C374.525 56.4424 375.111 53.8306 374.955 51.2097C374.936 49.0444 374.558 46.8972 373.839 44.855C372.067 39.4865 370.014 34.2154 367.687 29.0635C366.484 29.008 362.945 29.008 362.24 30.5927Z" fill="black"/>
<path d="M346.651 42.478C346.987 43.7577 347.476 44.9922 348.108 46.1545C348.708 47.2486 349.436 48.2673 350.277 49.1892L357.83 50.0687C358.155 49.0151 358.576 47.9939 359.089 47.0181C360.651 44.1276 362.944 41.6985 365.739 39.9741L362.248 31.1711C356.271 33.7278 350.942 37.5912 346.651 42.478Z" fill="white"/>
<path d="M367.988 30.1173C368.289 31.2583 368.78 33.0094 369.571 35.1012C371.004 38.8807 371.82 39.6968 373.3 43.619C374.781 47.5411 375.034 49.5933 375.097 50.354C375.266 51.8949 375.2 53.4526 374.899 54.9734C373.957 59.2758 370.719 61.954 369.223 63.0237L371.875 63.8952C373.138 62.8787 374.324 61.7689 375.422 60.5753C378.8 57.1278 381.199 52.8422 382.373 48.1591C382.679 46.8288 382.864 45.4737 382.927 44.1102L379.602 44.0468C379.012 43.5438 378.459 42.9983 377.948 42.4146C376.726 41.0358 375.742 39.4642 375.034 37.7635C377.021 35.9965 377.322 33.4531 376.253 32.114C375.897 31.7437 375.467 31.4528 374.991 31.2603C374.515 31.0678 374.003 30.978 373.49 30.9968L367.988 30.1173Z" fill="white"/>
<path opacity="0.31" d="M351.014 38.12L352.359 49.213C353.441 48.9979 354.559 49.0551 355.613 49.3794C356.661 49.704 357.614 50.2776 358.392 51.0512C355.933 46.7461 353.473 42.4357 351.014 38.12Z" fill="#9E9E9E"/>
<path opacity="0.31" d="M368.78 30.2441C370.309 32.4835 371.661 34.8386 372.825 37.2881C374.533 40.8388 375.781 44.5932 376.538 48.4602C377.33 52.6122 377.718 54.6881 376.855 57.1761C375.768 59.9098 373.733 62.16 371.123 63.5149L369.54 62.6195C371.793 61.5927 373.571 59.7454 374.512 57.4534C374.843 56.4005 375.001 55.3006 374.979 54.1969C375.151 51.2599 374.835 48.3147 374.044 45.481C372.825 41.1706 371.558 40.8616 370.086 36.2739C369.458 34.3106 369.02 32.2913 368.78 30.2441Z" fill="#9E9E9E"/>
<path d="M346.723 43.2228C347.034 45.1902 347.733 47.0757 348.781 48.7692C349.177 49.4269 350.206 48.8247 349.81 48.175C348.815 46.5561 348.155 44.7534 347.871 42.8742C347.752 42.0818 346.612 42.4384 346.723 43.1911V43.2228Z" fill="black"/>
<path d="M351.916 41.131C353.541 44.7399 355.539 48.1683 357.878 51.3602C357.939 51.4579 358.027 51.5359 358.131 51.585C358.235 51.6341 358.352 51.6522 358.466 51.6372C358.58 51.6222 358.687 51.5747 358.775 51.5003C358.864 51.4259 358.928 51.3278 358.962 51.2176C359.434 49.8648 359.677 48.443 359.683 47.0102C359.683 46.8526 359.62 46.7015 359.509 46.59C359.398 46.4786 359.246 46.416 359.089 46.416C358.932 46.416 358.78 46.4786 358.669 46.59C358.558 46.7015 358.495 46.8526 358.495 47.0102C358.487 48.3379 358.259 49.655 357.822 50.9086L358.907 50.766C356.57 47.5702 354.572 44.1393 352.945 40.5288C352.629 39.8315 351.607 40.4416 351.916 41.131Z" fill="black"/>
<path d="M357.664 39.0075C358.006 39.5934 358.464 40.103 359.01 40.505C359.144 40.5801 359.301 40.5998 359.449 40.5598C359.597 40.5198 359.724 40.4233 359.802 40.2911C359.873 40.1564 359.89 39.9998 359.85 39.8528C359.811 39.7058 359.717 39.5793 359.588 39.4987C359.217 39.2029 358.907 38.8367 358.677 38.4211C358.638 38.3535 358.585 38.2943 358.523 38.247C358.461 38.1996 358.39 38.165 358.314 38.1451C358.238 38.1253 358.159 38.1205 358.082 38.1312C358.004 38.1418 357.929 38.1677 357.862 38.2072C357.794 38.2467 357.735 38.2992 357.688 38.3616C357.641 38.424 357.606 38.4952 357.586 38.571C357.566 38.6467 357.562 38.7257 357.572 38.8033C357.583 38.8809 357.609 38.9557 357.648 39.0233L357.664 39.0075Z" fill="black"/>
<path d="M356.516 38.7301C357.756 38.0148 358.714 36.8964 359.232 35.5607C359.517 34.8476 358.369 34.5386 358.084 35.2438C357.667 36.2932 356.904 37.1684 355.922 37.7239C355.855 37.7629 355.795 37.8148 355.748 37.8768C355.7 37.9387 355.665 38.0094 355.645 38.0848C355.625 38.1602 355.62 38.2389 355.63 38.3163C355.64 38.3937 355.665 38.4684 355.704 38.536C355.743 38.6037 355.795 38.6629 355.857 38.7105C355.919 38.7581 355.99 38.7929 356.065 38.8132C356.14 38.8334 356.219 38.8386 356.296 38.8284C356.374 38.8183 356.448 38.7929 356.516 38.7539V38.7301Z" fill="black"/>
<path d="M349.462 49.8072C351.76 49.6904 354.064 49.8849 356.31 50.3856C357.054 50.5441 357.371 49.4031 356.627 49.2367C354.277 48.7109 351.867 48.5031 349.462 48.6187C348.67 48.6187 348.67 49.8468 349.462 49.8072Z" fill="black"/>
<path d="M347.712 47.0419C347.254 48.4404 347.117 49.9245 347.313 51.3832C347.51 52.8418 348.033 54.2371 348.844 55.4646C350.112 57.0912 351.205 58.8467 352.106 60.7021C352.613 61.9929 353.307 63.2022 354.165 64.2914C359.065 70.242 366.753 66.7636 370.996 62.0253C371.511 61.4548 370.672 60.6149 370.157 61.1854C365.462 66.4308 357.569 68.8712 353.65 61.2646C352.692 59.4105 352.407 57.8417 351.148 56.3204C348.908 53.6105 347.783 51.0037 348.86 47.3747C348.888 47.2284 348.859 47.0772 348.781 46.9509C348.702 46.8246 348.579 46.7324 348.435 46.6925C348.292 46.6527 348.139 46.6681 348.007 46.7358C347.874 46.8034 347.772 46.9183 347.72 47.0578L347.712 47.0419Z" fill="black"/>
<path d="M360.451 48.0244C361.354 45.2693 363.166 42.903 365.589 41.3132C366.222 40.8933 365.629 39.8632 364.987 40.2832C362.307 42.0421 360.303 44.6597 359.303 47.7075C359.065 48.4365 360.213 48.7455 360.451 48.0244Z" fill="black"/>
<path d="M362.2 32.2883L365.169 40.1009C365.438 40.8061 366.586 40.4971 366.317 39.784L363.34 31.9555C363.071 31.2424 361.923 31.5514 362.2 32.2646V32.2883Z" fill="black"/>
<path d="M367.41 30.2758C369.785 39.6493 380.663 53.254 370.284 61.3518C369.682 61.8193 370.529 62.6592 371.123 62.1917C381.977 53.7214 370.973 39.5859 368.558 29.9588C368.376 29.2219 367.228 29.5309 367.41 30.2758Z" fill="black"/>
<path d="M372.255 33.1995C372.326 30.7512 375.367 31.5039 376.134 33.1044C376.673 34.2296 376.839 37.0028 375.018 37.1692C374.266 37.2405 374.226 38.4291 375.018 38.3577C378.122 38.0804 378.296 33.7146 376.705 31.7495C374.955 29.6023 371.163 30.1014 371.068 33.1995C371.068 33.9919 372.223 33.9919 372.255 33.1995Z" fill="black"/>
<path d="M346.992 42.8266C352.383 37.0266 363.903 27.1618 372.509 30.9413C373.197 31.2503 373.807 30.2282 373.11 29.9192C363.792 25.8386 352.051 35.64 346.129 41.9867C345.606 42.5493 346.445 43.3892 346.968 42.8266H346.992Z" fill="black"/>
<path d="M346.35 41.955C344.909 42.7474 335.955 46.7091 338.505 40.0851C338.869 39.1501 340.705 38.1042 341.418 37.502C344.004 35.2592 346.777 33.2419 349.707 31.4722C356.176 27.7006 363.958 26.108 370.83 29.7845C371.503 30.1411 372.105 29.1189 371.424 28.7544C361.179 23.2872 350.388 28.7544 342.194 35.331C340.357 36.8206 334.419 40.4892 336.557 43.7537C338.695 47.0181 344.64 44.3083 346.952 42.9613C347.078 42.8767 347.166 42.7474 347.199 42.5998C347.233 42.4521 347.209 42.2973 347.132 42.1669C347.055 42.0365 346.931 41.9403 346.786 41.898C346.641 41.8557 346.485 41.8704 346.35 41.9392V41.955Z" fill="black"/>
<path d="M342.503 34.7525C343.009 26.6309 348.504 19.4998 356.841 18.4776C360.567 17.9847 364.339 18.9433 367.379 21.1553C370.419 23.3673 372.493 26.6636 373.174 30.3629C373.324 31.1077 374.472 30.7908 374.321 30.046C373.562 26.0651 371.315 22.5237 368.038 20.1432C364.76 17.7627 360.699 16.7222 356.682 17.2336C347.712 18.3826 341.861 26.0763 341.315 34.7525C341.268 35.5449 342.455 35.5449 342.503 34.7525Z" fill="black"/>
<path d="M374.385 38.7381C375.716 40.8574 377.33 42.7848 379.183 44.4668C379.753 44.9818 380.592 44.1419 380.022 43.6269C378.247 42.014 376.699 40.1667 375.422 38.1359C375.018 37.4862 373.989 38.0804 374.401 38.7381H374.385Z" fill="black"/>
<path d="M369.263 63.1346L370.846 64.0299C370.981 64.0987 371.136 64.1134 371.282 64.0711C371.427 64.0288 371.55 63.9326 371.627 63.8022C371.704 63.6718 371.728 63.517 371.695 63.3693C371.661 63.2217 371.573 63.0924 371.448 63.0078L369.864 62.1124C369.73 62.0519 369.579 62.0432 369.439 62.088C369.299 62.1329 369.18 62.2281 369.106 62.3553C369.032 62.4825 369.008 62.6326 369.039 62.7765C369.069 62.9205 369.152 63.048 369.27 63.1346H369.263Z" fill="black"/>
<path d="M379.008 53.5709C385.675 62.7428 390.021 73.3949 391.676 84.6152C389.758 86.1201 388.007 87.8254 386.451 89.7021C382.041 95.0426 381.486 99.0915 377.781 105.43C375.824 108.772 373.506 111.889 370.87 114.725C363.127 117.038 359.337 118.657 359.501 119.582C359.612 120.205 361.535 120.514 365.272 120.509C364.599 121.753 363.531 123.631 362.066 125.825C359.049 130.342 356.611 132.798 357.007 133.234C357.189 133.448 358.028 133.234 361.171 131.102C361.812 131.736 362.606 132.192 363.475 132.426C365.763 133.004 367.521 129.954 369.017 130.619C369.848 130.976 369.809 131.966 370.236 132.037C370.941 132.14 372.247 129.946 374.868 120.414C379.278 116.793 383.014 113.663 385.912 111.23C393.829 104.575 398.936 100.137 404.026 93.5213C406.536 90.2726 408.737 86.9051 408.927 82.4838C409.03 80.2414 408.563 78.6964 407.811 76.0261C406.315 70.6778 405.151 65.2422 403.615 59.9097C399.87 46.8676 399.3 44.7203 396.64 42.5255C395.618 41.6777 393.045 39.5542 389.847 39.7602C385.033 40.1009 380.489 45.5444 379.008 53.5709Z" fill="white"/>
<path opacity="0.24" d="M389.839 39.784C392.755 43.9167 395.118 48.4131 396.869 53.1589C398.643 57.913 403.773 71.8742 398.967 86.6595C395.69 96.7224 388.731 103.457 374.812 116.927C373.867 117.893 372.848 118.783 371.764 119.59C367.014 123.021 363.198 122.529 362.85 124.859C362.565 126.76 364.069 127.862 363.396 130.057C363.105 130.948 362.58 131.744 361.876 132.362C363.249 132.924 364.774 132.991 366.191 132.553C367.288 132.188 368.264 131.527 369.009 130.643C369.263 130.922 369.578 131.139 369.93 131.276C370.282 131.414 370.66 131.468 371.036 131.435C374.021 130.873 374.203 121.333 374.203 120.913C380.639 115.855 386.806 110.465 392.681 104.765C397.827 99.7729 402.427 94.8603 406.512 90.1459C407.342 87.7964 407.895 85.3579 408.159 82.88C408.327 81.2217 408.374 79.5534 408.302 77.8882C408.04 72.6507 406.37 68.6573 405.135 65.2105C400.796 53.1272 403.116 51.2414 399.419 46.4873C396.923 43.391 393.602 41.0666 389.839 39.784Z" fill="#9E9E9E"/>
<path d="M379.8 54.593C378.723 49.0466 381.748 42.9138 387.226 40.9487C394.478 38.3577 398.112 44.7679 400.036 50.5441C403.528 61.0348 406.734 71.7078 408.349 82.666C408.46 83.4584 409.608 83.1018 409.497 82.3491C408.156 74.0386 406.181 65.8429 403.591 57.8337C401.928 52.4537 400.638 44.8946 395.991 41.1072C387.1 33.8413 376.95 46.099 378.66 54.91C378.803 55.7023 379.943 55.3458 379.8 54.593Z" fill="black"/>
<path d="M385.081 64.9966C387.407 70.6709 389.351 76.4944 390.9 82.4283C390.922 82.5038 390.958 82.5742 391.007 82.6355C391.056 82.6968 391.117 82.7479 391.186 82.7858C391.254 82.8237 391.33 82.8477 391.408 82.8564C391.486 82.865 391.565 82.8583 391.64 82.8364C391.716 82.8146 391.786 82.7781 391.847 82.729C391.908 82.6799 391.96 82.6193 391.997 82.5505C392.035 82.4817 392.059 82.4061 392.068 82.3281C392.077 82.25 392.07 82.171 392.048 82.0956C390.494 76.1631 388.55 70.3398 386.229 64.6638C385.944 63.9665 384.796 64.2676 385.081 64.9808V64.9966Z" fill="black"/>
<path d="M391.335 84.124C386.118 87.127 383.418 93.3232 380.758 98.4576C377.544 104.717 374.385 110.985 368.938 115.62C368.36 116.119 369.199 116.959 369.777 116.468C374.337 112.585 377.354 107.593 380.069 102.34C383.102 96.5164 385.968 88.5611 391.905 85.154C392.042 85.0742 392.141 84.9433 392.181 84.7903C392.221 84.6372 392.199 84.4745 392.119 84.3379C392.039 84.2013 391.909 84.102 391.756 84.0619C391.603 84.0218 391.44 84.0441 391.304 84.124H391.335Z" fill="black"/>
<path d="M408.215 84.5994C406.101 92.6101 398.603 98.6557 392.816 104.147C386.751 109.904 380.418 115.345 373.815 120.469C373.213 120.937 374.06 121.769 374.654 121.309C382.014 115.599 389.055 109.488 395.745 103.006C401.081 97.8158 407.415 92.3803 409.386 84.9163C409.428 84.764 409.408 84.6012 409.33 84.4637C409.252 84.3263 409.123 84.2254 408.971 84.1834C408.818 84.1414 408.656 84.1616 408.518 84.2396C408.381 84.3176 408.28 84.447 408.238 84.5994H408.215Z" fill="black"/>
<path d="M368.962 115.002C365.795 115.485 361.298 116.111 359.35 119.051C358.852 119.843 358.662 120.889 359.596 121.38C360.965 122.101 363.918 121.016 365.288 120.691C366.032 120.517 365.716 119.368 364.971 119.542C363.974 119.788 362.193 120.485 361.187 120.263C360.395 120.548 360.261 120.192 360.815 119.178L361.535 118.583C361.983 118.282 362.454 118.017 362.945 117.791C364.966 116.951 367.1 116.417 369.278 116.206C370.03 116.087 369.714 114.946 368.962 115.057V115.002Z" fill="black"/>
<path d="M364.655 120.374C363.681 123.456 361.369 125.604 359.319 127.989C358.384 129.066 356.025 131.38 356.263 132.933C356.841 136.728 364.18 128.876 364.9 127.909C365.344 127.291 364.314 126.697 363.871 127.315C363.137 128.354 362.293 129.311 361.353 130.168C360.997 130.492 358.804 132.584 358.242 132.362C357.118 131.911 360.11 128.876 360.617 128.298C362.699 125.921 364.829 123.749 365.795 120.683C366.024 119.954 364.876 119.645 364.647 120.374H364.655Z" fill="black"/>
<path d="M359.485 132.806C363.095 133.773 365.771 131.071 367.774 128.44C368.233 127.83 367.204 127.236 366.745 127.838C365.09 130.025 362.842 132.473 359.802 131.657C359.649 131.615 359.487 131.635 359.349 131.713C359.212 131.791 359.111 131.921 359.069 132.073C359.027 132.225 359.047 132.388 359.125 132.526C359.203 132.663 359.333 132.764 359.485 132.806Z" fill="black"/>
<path d="M363.135 132.965C366.539 134.47 369.049 131.459 370.672 128.86C371.076 128.21 370.054 127.616 369.65 128.258C368.439 130.183 366.484 133.131 363.736 131.934C363.048 131.625 362.438 132.656 363.135 132.965Z" fill="black"/>
<path d="M368.439 130.484C367.814 132.378 370.118 133.155 371.416 132.069C374.638 129.344 373.546 124.082 375.375 120.754C375.739 120.081 374.717 119.479 374.345 120.152C373.49 121.737 373.467 123.385 373.118 125.112C372.921 126.075 372.657 127.023 372.326 127.949C372.057 128.692 371.74 129.418 371.376 130.12C371.139 130.912 370.537 131.126 369.587 130.817C369.825 130.088 368.677 129.771 368.439 130.5V130.484Z" fill="black"/>
<path d="M85.3317 360.75C107.444 357.137 126.026 342.755 140.751 326.584C156.586 309.247 169.712 289.406 183.504 270.445L210.659 233.039C211.562 231.795 209.503 230.606 208.609 231.834C190.051 257.411 171.984 283.448 152.722 308.502C135.534 330.894 113.841 353.698 84.7063 358.46C83.202 358.705 83.8354 360.995 85.3317 360.75Z" fill="black"/>
<path d="M225.718 217.516C250.799 209.854 276.34 201.471 298.159 186.512C308.816 179.206 317.738 170.324 326.043 160.475C334.483 150.468 342.804 140.127 354.323 133.535C354.583 133.37 354.769 133.111 354.842 132.812C354.915 132.514 354.869 132.198 354.714 131.932C354.559 131.666 354.307 131.471 354.011 131.387C353.715 131.303 353.399 131.338 353.128 131.483C342.17 137.758 334.008 147.33 325.98 156.886C317.556 166.909 308.792 176.203 298.009 183.738C276.126 199.047 250.387 207.509 225.084 215.234C223.628 215.678 224.253 217.976 225.718 217.524V217.516Z" fill="black"/>
<path d="M354.632 132.806C355.987 131.591 357.403 130.446 358.875 129.375C360.102 128.488 358.923 126.428 357.68 127.323C356.032 128.508 354.447 129.778 352.93 131.126C351.782 132.148 353.468 133.828 354.608 132.806H354.632Z" fill="black"/>
<path d="M375.549 121.475C398.098 110.545 416.651 92.8082 428.593 70.7649C434.404 59.9572 438.957 47.6362 448.323 39.2689C452.234 35.7747 459.644 31.0206 464.949 34.6733C468.828 37.3594 466.825 44.5935 463.009 46.614C462.455 46.9072 459.335 46.9785 458.837 46.2258C458.544 45.7979 459.035 44.2449 459.145 43.7774C459.626 42.0319 460.273 40.3365 461.077 38.7143C464.07 32.2394 468.438 26.4953 473.876 21.8823C479.313 17.2694 485.691 13.8983 492.563 12.0041C492.843 11.8996 493.074 11.6938 493.21 11.4274C493.346 11.161 493.377 10.8533 493.298 10.565C493.218 10.2766 493.034 10.0286 492.781 9.86961C492.528 9.71066 492.224 9.6524 491.93 9.7063C484.948 11.6297 478.451 15.0086 472.865 19.6214C467.279 24.2341 462.73 29.9765 459.517 36.4719C457.997 39.6413 453.508 48.7217 458.987 50.7343C464.038 52.5804 469.533 43.1277 469.556 39.0946C469.556 33.255 464.109 30.7512 458.987 31.3058C452.535 32.0031 447.159 36.567 443.058 41.2974C432.615 53.3728 427.912 69.3625 418.649 82.3016C407.213 98.182 391.995 110.953 374.377 119.455C373.007 120.128 374.211 122.173 375.58 121.515L375.549 121.475Z" fill="black"/>
</g>
<defs>
<clipPath id="clip0_809_9396">
<rect width="560" height="455" fill="white" transform="translate(0.5)"/>
</clipPath>
</defs>
</svg>
